<?xml version="1.0" encoding="UTF-8"?>
<svg width="700pt" height="700pt" version="1.1" viewBox="0 0 700 700" xmlns="http://www.w3.org/2000/svg" xmlns:xlink="http://www.w3.org/1999/xlink">
 <defs>
  <symbol id="u" overflow="visible">
   <path d="m0.21875-0.015625c-0.011719 0.011719-0.027344 0.015625-0.046875 0.015625h-0.03125c-0.042969 0-0.074219-0.0078125-0.09375-0.03125-0.023438-0.019531-0.03125-0.046875-0.03125-0.078125 0-0.039063 0.0078125-0.070313 0.03125-0.09375 0.019531-0.019531 0.050781-0.03125 0.09375-0.03125h0.03125c0.019531 0 0.035156 0.007813 0.046875 0.015625v0.046875c-0.011719-0.007813-0.023438-0.015625-0.03125-0.015625h-0.046875c-0.023437 0-0.039063 0.007812-0.046875 0.015625-0.011719 0.011719-0.015625 0.03125-0.015625 0.0625 0 0.023438 0.0039062 0.039062 0.015625 0.046875 0.007812 0.011719 0.023438 0.015625 0.046875 0.015625h0.046875c0.007812 0 0.019531-0.0039062 0.03125-0.015625z"/>
  </symbol>
  <symbol id="d" overflow="visible">
   <path d="m0.15625-0.125h-0.015625c0-0.007812-0.007813-0.015625-0.015625-0.015625-0.011719 0-0.023438 0.007813-0.03125 0.015625-0.011719 0.011719-0.015625 0.027344-0.015625 0.046875v0.078125h-0.046875v-0.17188h0.046875v0.03125c0.0078125-0.019531 0.019531-0.03125 0.03125-0.03125 0.007813-0.007813 0.019531-0.015625 0.03125-0.015625h0.015625z"/>
  </symbol>
  <symbol id="c" overflow="visible">
   <path d="m0.20312-0.09375v0.03125h-0.14062c0.0078125 0.011719 0.015625 0.023438 0.015625 0.03125h0.046875 0.03125c0.007812-0.0078125 0.019531-0.019531 0.03125-0.03125v0.046875c-0.011719 0.011719-0.023438 0.015625-0.03125 0.015625h-0.046875c-0.03125 0-0.058594-0.0039062-0.078125-0.015625-0.011719-0.019531-0.015625-0.039062-0.015625-0.0625 0-0.03125 0.0039062-0.054687 0.015625-0.078125 0.019531-0.019531 0.046875-0.03125 0.078125-0.03125s0.050781 0.011719 0.0625 0.03125c0.019531 0.023438 0.03125 0.042969 0.03125 0.0625zm-0.0625-0.015625c0-0.007813-0.007813-0.015625-0.015625-0.015625 0-0.007812-0.007812-0.015625-0.015625-0.015625-0.011719 0-0.023438 0.007813-0.03125 0.015625 0 0-0.0078125 0.007812-0.015625 0.015625z"/>
  </symbol>
  <symbol id="a" overflow="visible">
   <path d="m0.10938-0.078125c-0.011719 0-0.023438 0.0078125-0.03125 0.015625h-0.015625v0.03125h0.03125c0.007812 0 0.019531-0.0039062 0.03125-0.015625 0.007812-0.0078125 0.015625-0.015625 0.015625-0.015625v-0.015625zm0.078125-0.015625v0.09375h-0.046875v-0.03125c-0.011719 0.011719-0.023437 0.023438-0.03125 0.03125h-0.03125c-0.023438 0-0.039062-0.0039062-0.046875-0.015625-0.011719-0.0078125-0.015625-0.023438-0.015625-0.046875 0-0.0078125 0.0039062-0.019531 0.015625-0.03125 0.019531-0.007812 0.039062-0.015625 0.0625-0.015625h0.046875c0-0.007813-0.007813-0.015625-0.015625-0.015625-0.011719-0.007812-0.023438-0.015625-0.03125-0.015625h-0.03125c-0.011719 0-0.023438 0.007813-0.03125 0.015625v-0.046875h0.03125c0.0078125-0.007813 0.019531-0.015625 0.03125-0.015625 0.039062 0 0.066406 0.011719 0.078125 0.03125 0.007813 0.011719 0.015625 0.03125 0.015625 0.0625z"/>
  </symbol>
  <symbol id="b" overflow="visible">
   <path d="m0.09375-0.21875v0.046875h0.046875v0.03125h-0.046875v0.078125 0.015625h0.015625 0.03125v0.046875h-0.046875c-0.023438 0-0.039062-0.0039062-0.046875-0.015625-0.011719-0.0078125-0.015625-0.023438-0.015625-0.046875v-0.078125h-0.03125v-0.03125h0.03125v-0.046875z"/>
  </symbol>
  <symbol id="l" overflow="visible">
   <path d="m0.14062-0.15625v-0.09375h0.0625v0.25h-0.0625v-0.03125c0 0.011719-0.007813 0.023438-0.015625 0.03125h-0.03125c-0.023438 0-0.042969-0.0039062-0.0625-0.015625-0.011719-0.019531-0.015625-0.039062-0.015625-0.0625 0-0.03125 0.0039062-0.054687 0.015625-0.078125 0.019531-0.019531 0.039062-0.03125 0.0625-0.03125 0.007812 0 0.019531 0.007812 0.03125 0.015625 0.007812 0 0.015625 0.007813 0.015625 0.015625zm-0.03125 0.125c0.007813 0 0.015625-0.0039062 0.015625-0.015625 0.007812-0.0078125 0.015625-0.019531 0.015625-0.03125 0-0.019531-0.007813-0.035156-0.015625-0.046875 0-0.007812-0.007812-0.015625-0.015625-0.015625-0.011719 0-0.023438 0.007813-0.03125 0.015625-0.011719 0.011719-0.015625 0.027344-0.015625 0.046875 0 0.011719 0.0039062 0.023438 0.015625 0.03125 0.0078125 0.011719 0.019531 0.015625 0.03125 0.015625z"/>
  </symbol>
  <symbol id="k" overflow="visible">
   <path d="m0.125-0.03125c0.007812 0 0.015625-0.0039062 0.015625-0.015625 0.007813-0.0078125 0.015625-0.019531 0.015625-0.03125 0-0.019531-0.007812-0.035156-0.015625-0.046875 0-0.007812-0.007813-0.015625-0.015625-0.015625-0.023438 0-0.039062 0.007813-0.046875 0.015625v0.046875 0.03125c0.0078125 0.011719 0.023437 0.015625 0.046875 0.015625zm-0.046875-0.125c0.0078125-0.007812 0.019531-0.015625 0.03125-0.015625 0.007813-0.007813 0.019531-0.015625 0.03125-0.015625 0.019531 0 0.035156 0.011719 0.046875 0.03125 0.019531 0.023438 0.03125 0.046875 0.03125 0.078125 0 0.023438-0.011719 0.042969-0.03125 0.0625-0.011719 0.011719-0.027344 0.015625-0.046875 0.015625h-0.03125c-0.011719-0.0078125-0.023438-0.019531-0.03125-0.03125v0.03125h-0.046875v-0.25h0.046875z"/>
  </symbol>
  <symbol id="j" overflow="visible">
   <path d="m0-0.17188h0.0625l0.046875 0.10938 0.03125-0.10938h0.0625l-0.078125 0.1875c0 0.019531-0.007812 0.03125-0.015625 0.03125-0.011719 0.0078125-0.027344 0.015625-0.046875 0.015625h-0.03125v-0.03125h0.015625 0.015625c0.0078125 0 0.015625-0.0078125 0.015625-0.015625v-0.015625z"/>
  </symbol>
  <symbol id="g" overflow="visible">
   <path d="m0.03125-0.17188h0.046875v0.17188c0 0.019531-0.0078125 0.035156-0.015625 0.046875-0.011719 0.0078125-0.027344 0.015625-0.046875 0.015625h-0.03125v-0.03125h0.015625c0.0078125 0 0.015625-0.0078125 0.015625-0.015625 0.0078125 0 0.015625-0.0078125 0.015625-0.015625zm0-0.078125h0.046875v0.046875h-0.046875z"/>
  </symbol>
  <symbol id="i" overflow="visible">
   <path d="m0.20312-0.10938v0.10938h-0.0625v-0.078125-0.03125-0.015625h-0.015625v-0.015625c-0.011719 0-0.023438 0.007813-0.03125 0.015625-0.011719 0.011719-0.015625 0.027344-0.015625 0.046875v0.078125h-0.046875v-0.25h0.046875v0.09375c0.0078125-0.007812 0.019531-0.015625 0.03125-0.015625 0.007813-0.007813 0.019531-0.015625 0.03125-0.015625 0.019531 0 0.035156 0.011719 0.046875 0.03125 0.007812 0.011719 0.015625 0.027344 0.015625 0.046875z"/>
  </symbol>
  <symbol id="t" overflow="visible">
   <path d="m0.03125-0.17188h0.046875v0.17188h-0.046875zm0-0.078125h0.046875v0.046875h-0.046875z"/>
  </symbol>
  <symbol id="h" overflow="visible">
   <path d="m0.20312-0.10938v0.10938h-0.0625v-0.078125-0.03125-0.015625h-0.015625v-0.015625c-0.011719 0-0.023438 0.007813-0.03125 0.015625-0.011719 0.011719-0.015625 0.027344-0.015625 0.046875v0.078125h-0.046875v-0.17188h0.046875v0.015625c0.0078125-0.007812 0.019531-0.015625 0.03125-0.015625 0.007813-0.007813 0.019531-0.015625 0.03125-0.015625 0.019531 0 0.035156 0.011719 0.046875 0.03125 0.007812 0.011719 0.015625 0.027344 0.015625 0.046875z"/>
  </symbol>
  <symbol id="f" overflow="visible">
   <path d="m0.078125-0.03125v0.09375h-0.046875v-0.23438h0.046875v0.015625c0.0078125-0.007812 0.019531-0.015625 0.03125-0.015625 0.007813-0.007813 0.019531-0.015625 0.03125-0.015625 0.019531 0 0.035156 0.011719 0.046875 0.03125 0.019531 0.023438 0.03125 0.046875 0.03125 0.078125 0 0.023438-0.011719 0.042969-0.03125 0.0625-0.011719 0.011719-0.027344 0.015625-0.046875 0.015625h-0.03125c-0.011719-0.0078125-0.023438-0.019531-0.03125-0.03125zm0.046875-0.10938c-0.023438 0-0.039062 0.007813-0.046875 0.015625v0.046875 0.03125c0.0078125 0.011719 0.023437 0.015625 0.046875 0.015625 0.007812 0 0.015625-0.0039062 0.015625-0.015625 0.007813-0.0078125 0.015625-0.019531 0.015625-0.03125 0-0.019531-0.007812-0.035156-0.015625-0.046875 0-0.007812-0.007813-0.015625-0.015625-0.015625z"/>
  </symbol>
  <symbol id="s" overflow="visible">
   <path d="m0.03125-0.25h0.046875v0.25h-0.046875z"/>
  </symbol>
  <symbol id="r" overflow="visible">
   <path d="m0.14062-0.25v0.046875h-0.03125-0.015625v0.015625 0.015625h0.046875v0.03125h-0.046875v0.14062h-0.0625v-0.14062h-0.03125v-0.03125h0.03125v-0.015625c0-0.019531 0.0039062-0.035156 0.015625-0.046875 0.0078125-0.007813 0.023438-0.015625 0.046875-0.015625z"/>
  </symbol>
  <symbol id="e" overflow="visible">
   <path d="m0.10938-0.14062c-0.011719 0-0.023438 0.007813-0.03125 0.015625-0.011719 0.011719-0.015625 0.027344-0.015625 0.046875 0 0.011719 0.0039062 0.023438 0.015625 0.03125 0.0078125 0.011719 0.019531 0.015625 0.03125 0.015625 0.007813 0 0.019531-0.0039062 0.03125-0.015625 0.007813-0.0078125 0.015625-0.019531 0.015625-0.03125 0-0.019531-0.007812-0.035156-0.015625-0.046875-0.011719-0.007812-0.023437-0.015625-0.03125-0.015625zm0-0.046875c0.03125 0 0.050781 0.011719 0.0625 0.03125 0.019531 0.023438 0.03125 0.046875 0.03125 0.078125 0 0.023438-0.011719 0.042969-0.03125 0.0625-0.011719 0.011719-0.03125 0.015625-0.0625 0.015625s-0.058594-0.0039062-0.078125-0.015625c-0.011719-0.019531-0.015625-0.039062-0.015625-0.0625 0-0.03125 0.0039062-0.054687 0.015625-0.078125 0.019531-0.019531 0.046875-0.03125 0.078125-0.03125z"/>
  </symbol>
  <symbol id="q" overflow="visible">
   <path d="m0.1875-0.14062c0.007812-0.007813 0.019531-0.019531 0.03125-0.03125 0.007812-0.007813 0.019531-0.015625 0.03125-0.015625 0.019531 0 0.035156 0.011719 0.046875 0.03125 0.007813 0.011719 0.015625 0.027344 0.015625 0.046875v0.10938h-0.0625v-0.09375c0-0.019531-0.007812-0.03125-0.015625-0.03125v-0.015625c-0.011719 0-0.023437 0.007813-0.03125 0.015625-0.011719 0.011719-0.015625 0.027344-0.015625 0.046875v0.078125h-0.046875v-0.09375c0-0.019531-0.007813-0.03125-0.015625-0.03125 0-0.007812-0.007812-0.015625-0.015625-0.015625-0.011719 0-0.023438 0.007813-0.03125 0.015625v0.046875 0.078125h-0.046875v-0.17188h0.046875v0.015625c0.0078125-0.007812 0.019531-0.015625 0.03125-0.015625 0.007813-0.007813 0.019531-0.015625 0.03125-0.015625 0.007813 0 0.019531 0.007812 0.03125 0.015625 0.007813 0.011719 0.015625 0.023437 0.015625 0.03125z"/>
  </symbol>
  <symbol id="p" overflow="visible">
   <path d="m0.03125-0.23438h0.0625l0.09375 0.15625v-0.15625h0.046875v0.23438h-0.0625l-0.09375-0.15625v0.15625h-0.046875z"/>
  </symbol>
  <symbol id="o" overflow="visible">
   <path d="m0.03125-0.0625v-0.10938h0.046875v0.015625 0.046875 0.015625 0.03125 0.015625h0.015625 0.015625 0.015625c0.007812-0.0078125 0.015625-0.023438 0.015625-0.046875v-0.078125h0.0625v0.17188h-0.0625v-0.03125c-0.011719 0.011719-0.023437 0.023438-0.03125 0.03125h-0.03125c-0.011719 0-0.023438-0.0039062-0.03125-0.015625-0.011719-0.0078125-0.015625-0.023438-0.015625-0.046875z"/>
  </symbol>
  <symbol id="n" overflow="visible">
   <path d="m0.03125-0.23438h0.09375c0.03125 0 0.050781 0.011719 0.0625 0.03125 0.019531 0.011719 0.03125 0.027344 0.03125 0.046875 0 0.023438-0.011719 0.042969-0.03125 0.0625-0.011719 0.011719-0.03125 0.015625-0.0625 0.015625h-0.03125v0.078125h-0.0625zm0.0625 0.046875v0.0625h0.03125 0.015625c0.007813-0.007812 0.015625-0.019531 0.015625-0.03125 0-0.007812-0.007812-0.015625-0.015625-0.015625 0-0.007813-0.007813-0.015625-0.015625-0.015625z"/>
  </symbol>
  <symbol id="m" overflow="visible">
   <path d="m0.17188-0.17188v0.046875h-0.03125c0-0.007812-0.007813-0.015625-0.015625-0.015625-0.023438 0-0.039062 0.007813-0.046875 0.015625-0.011719 0.011719-0.015625 0.027344-0.015625 0.046875 0 0.011719 0.0039062 0.023438 0.015625 0.03125 0.0078125 0.011719 0.023437 0.015625 0.046875 0.015625h0.015625c0.007813-0.0078125 0.019531-0.015625 0.03125-0.015625v0.046875h-0.03125-0.03125c-0.03125 0-0.058594-0.0039062-0.078125-0.015625-0.011719-0.019531-0.015625-0.039062-0.015625-0.0625 0-0.03125 0.0039062-0.054687 0.015625-0.078125 0.019531-0.019531 0.046875-0.03125 0.078125-0.03125 0.007813 0 0.019531 0.007812 0.03125 0.015625h0.03125z"/>
  </symbol>
 </defs>
 <g>
  <path d="m469.79 526 0.12891 34.004h-239.83l0.12891-34.004c1.4688-27.934 21.031-51.902 48.004-59.254-10.609-6.8398-14.125-20.133-14.957-34.07-15.66-2.3633-14.508-27.164 2.4922-27.164h8.8867c22.309-46.918 32.344-126.05 19.047-176.42-10.738-3.707-10.676-20.262-0.25391-24.289-3.8984-7.0938-0.89453-17.961 8.6914-19.496-12.207-18.602-18.023-40.078-15.98-62.641 3.7695-37.777 25.121-70.121 55.227-92.043-4.6016-2.75-7.9258-7.7344-7.9258-14.062 0-9.1406 7.4141-16.555 16.555-16.555 16.555 0 22.82 21.734 8.6914 30.68 11.312 8.1172 20.645 17.004 29.594 28.254l-37.969 68.012c-0.89453 1.5977 1.4062 3.5781 2.875 1.5977l37.328-66.859c12.336 18.922 21.031 38.223 23.332 60.98 2.1094 22.371-3.8984 44.105-15.98 62.641 9.7148 1.5352 12.527 12.336 8.6289 19.43 10.676 3.8984 10.418 20.52-0.19141 24.289-13.422 52.223-3.1328 127.77 19.047 176.48h8.8867c17.32 0 17.832 24.801 2.4297 27.164-0.76562 13.934-4.2812 27.23-14.895 34.07 26.973 7.3516 46.469 31.32 48.004 59.254z"/>
  <use x="230.085938" y="560.957031" xlink:href="#u"/>
  <use x="230.320312" y="560.957031" xlink:href="#d"/>
  <use x="230.480469" y="560.957031" xlink:href="#c"/>
  <use x="230.695312" y="560.957031" xlink:href="#a"/>
  <use x="230.910156" y="560.957031" xlink:href="#b"/>
  <use x="231.0625" y="560.957031" xlink:href="#c"/>
  <use x="231.28125" y="560.957031" xlink:href="#l"/>
  <use x="231.621094" y="560.957031" xlink:href="#k"/>
  <use x="231.851562" y="560.957031" xlink:href="#j"/>
  <use x="232.167969" y="560.957031" xlink:href="#b"/>
  <use x="232.320312" y="560.957031" xlink:href="#a"/>
  <use x="232.539062" y="560.957031" xlink:href="#g"/>
  <use x="232.648437" y="560.957031" xlink:href="#i"/>
  <use x="232.875" y="560.957031" xlink:href="#t"/>
  <use x="232.984375" y="560.957031" xlink:href="#h"/>
  <use x="233.324219" y="560.957031" xlink:href="#f"/>
  <use x="233.550781" y="560.957031" xlink:href="#a"/>
  <use x="233.769531" y="560.957031" xlink:href="#s"/>
  <use x="233.878906" y="560.957031" xlink:href="#a"/>
  <use x="234.09375" y="560.957031" xlink:href="#f"/>
  <use x="234.320312" y="560.957031" xlink:href="#f"/>
  <use x="234.550781" y="560.957031" xlink:href="#a"/>
  <use x="230.085938" y="561.277344" xlink:href="#r"/>
  <use x="230.226562" y="561.277344" xlink:href="#d"/>
  <use x="230.382812" y="561.277344" xlink:href="#e"/>
  <use x="230.601562" y="561.277344" xlink:href="#q"/>
  <use x="231.046875" y="561.277344" xlink:href="#b"/>
  <use x="231.199219" y="561.277344" xlink:href="#i"/>
  <use x="231.425781" y="561.277344" xlink:href="#c"/>
  <use x="231.753906" y="561.277344" xlink:href="#p"/>
  <use x="232.023438" y="561.277344" xlink:href="#e"/>
  <use x="232.242187" y="561.277344" xlink:href="#o"/>
  <use x="232.46875" y="561.277344" xlink:href="#h"/>
  <use x="232.808594" y="561.277344" xlink:href="#n"/>
  <use x="233.042969" y="561.277344" xlink:href="#d"/>
  <use x="233.199219" y="561.277344" xlink:href="#e"/>
  <use x="233.421875" y="561.277344" xlink:href="#g"/>
  <use x="233.53125" y="561.277344" xlink:href="#c"/>
  <use x="233.746094" y="561.277344" xlink:href="#m"/>
  <use x="233.9375" y="561.277344" xlink:href="#b"/>
 </g>
</svg>
