<?xml version="1.0" encoding="UTF-8"?>
<svg width="700pt" height="700pt" version="1.1" viewBox="0 0 700 700" xmlns="http://www.w3.org/2000/svg" xmlns:xlink="http://www.w3.org/1999/xlink">
 <defs>
  <symbol id="u" overflow="visible">
   <path d="m0.1875-0.015625c-0.011719 0.011719-0.023438 0.015625-0.03125 0.015625h-0.03125c-0.03125 0-0.058594-0.0039062-0.078125-0.015625-0.023438-0.019531-0.03125-0.046875-0.03125-0.078125s0.0078125-0.054688 0.03125-0.078125c0.019531-0.019531 0.046875-0.03125 0.078125-0.03125 0.007812 0 0.019531 0.007813 0.03125 0.015625h0.03125v0.046875c-0.011719-0.007813-0.023438-0.015625-0.03125-0.015625-0.011719-0.007812-0.023438-0.015625-0.03125-0.015625-0.023438 0-0.039062 0.011719-0.046875 0.03125-0.011719 0.011719-0.015625 0.027344-0.015625 0.046875 0 0.023438 0.0039062 0.039062 0.015625 0.046875 0.0078125 0.011719 0.023437 0.015625 0.046875 0.015625h0.03125c0.007812-0.0078125 0.019531-0.015625 0.03125-0.015625z"/>
  </symbol>
  <symbol id="d" overflow="visible">
   <path d="m0.125-0.10938h-0.015625c-0.011719 0-0.023438 0.007813-0.03125 0.015625v0.03125 0.0625h-0.0625v-0.15625h0.0625v0.03125c0-0.007812 0.0039062-0.015625 0.015625-0.015625 0.007812-0.007813 0.019531-0.015625 0.03125-0.015625z"/>
  </symbol>
  <symbol id="c" overflow="visible">
   <path d="m0.17188-0.078125v0.015625h-0.10938v0.03125h0.046875 0.015625c0.019531 0 0.035156-0.0039062 0.046875-0.015625v0.03125c-0.011719 0.011719-0.027344 0.015625-0.046875 0.015625h-0.03125c-0.023438 0-0.042969-0.0039062-0.0625-0.015625-0.011719-0.0078125-0.015625-0.03125-0.015625-0.0625 0-0.019531 0.0039062-0.035156 0.015625-0.046875 0.019531-0.019531 0.039062-0.03125 0.0625-0.03125 0.019531 0 0.035156 0.011719 0.046875 0.03125 0.019531 0.011719 0.03125 0.027344 0.03125 0.046875zm-0.046875-0.015625c0-0.007812-0.007812-0.015625-0.015625-0.015625 0-0.007813-0.007813-0.015625-0.015625-0.015625-0.011719 0-0.023438 0.007812-0.03125 0.015625v0.015625z"/>
  </symbol>
  <symbol id="a" overflow="visible">
   <path d="m0.09375-0.0625h-0.03125v0.015625 0.015625h0.015625 0.015625c0.007812-0.0078125 0.015625-0.019531 0.015625-0.03125zm0.0625-0.015625v0.078125h-0.046875v-0.015625s-0.007813 0.0078125-0.015625 0.015625h-0.03125-0.03125c-0.011719-0.0078125-0.015625-0.023438-0.015625-0.046875 0-0.019531 0.0039062-0.03125 0.015625-0.03125 0.0078125-0.0078125 0.023438-0.015625 0.046875-0.015625h0.03125c0-0.007812-0.007813-0.015625-0.015625-0.015625 0-0.007813-0.0078125-0.015625-0.015625-0.015625-0.011719 0-0.023438 0.007812-0.03125 0.015625h-0.015625v-0.03125c0-0.007813 0.0039062-0.015625 0.015625-0.015625h0.03125c0.03125 0 0.050781 0.007812 0.0625 0.015625 0.007813 0.011719 0.015625 0.03125 0.015625 0.0625z"/>
  </symbol>
  <symbol id="b" overflow="visible">
   <path d="m0.078125-0.1875v0.03125h0.046875v0.046875h-0.046875v0.0625 0.015625h0.015625 0.03125v0.03125h-0.046875c-0.023438 0-0.039062-0.0039062-0.046875-0.015625v-0.03125-0.0625h-0.03125v-0.046875h0.03125v-0.03125z"/>
  </symbol>
  <symbol id="l" overflow="visible">
   <path d="m0.125-0.125v-0.078125h0.046875v0.20312h-0.046875v-0.015625c-0.011719 0-0.023438 0.0078125-0.03125 0.015625h-0.015625c-0.023438 0-0.039062-0.0039062-0.046875-0.015625-0.011719-0.0078125-0.015625-0.03125-0.015625-0.0625 0-0.019531 0.0039062-0.035156 0.015625-0.046875 0.0078125-0.019531 0.023438-0.03125 0.046875-0.03125 0.0078125 0 0.015625 0.007812 0.015625 0.015625 0.007812 0 0.019531 0.007813 0.03125 0.015625zm-0.03125 0.09375h0.015625c0.007813-0.0078125 0.015625-0.023438 0.015625-0.046875 0-0.0078125-0.007812-0.019531-0.015625-0.03125 0-0.007813-0.007813-0.015625-0.015625-0.015625-0.011719 0-0.023438 0.007812-0.03125 0.015625v0.03125 0.046875h0.03125z"/>
  </symbol>
  <symbol id="k" overflow="visible">
   <path d="m0.10938-0.03125h0.015625v-0.046875-0.03125c0-0.007813-0.007812-0.015625-0.015625-0.015625-0.023438 0-0.03125 0.007812-0.03125 0.015625v0.03125 0.03125c0 0.011719 0.0078125 0.015625 0.03125 0.015625zm-0.03125-0.09375c0-0.007812 0.0039062-0.015625 0.015625-0.015625 0.007812-0.007813 0.019531-0.015625 0.03125-0.015625 0.019531 0 0.035156 0.011719 0.046875 0.03125 0.007813 0.011719 0.015625 0.027344 0.015625 0.046875 0 0.03125-0.007812 0.054688-0.015625 0.0625-0.011719 0.011719-0.027344 0.015625-0.046875 0.015625h-0.03125c-0.011719-0.0078125-0.015625-0.015625-0.015625-0.015625v0.015625h-0.0625v-0.20312h0.0625z"/>
  </symbol>
  <symbol id="j" overflow="visible">
   <path d="m0-0.15625h0.046875l0.046875 0.10938 0.03125-0.10938h0.046875l-0.0625 0.17188c0 0.0078125-0.007813 0.019531-0.015625 0.03125-0.011719 0.0078125-0.023438 0.015625-0.03125 0.015625h-0.03125v-0.03125h0.015625c0.0078125 0 0.015625-0.0078125 0.015625-0.015625v-0.015625z"/>
  </symbol>
  <symbol id="g" overflow="visible">
   <path d="m0.015625-0.15625h0.0625v0.15625c0 0.019531-0.0078125 0.035156-0.015625 0.046875-0.011719 0.0078125-0.027344 0.015625-0.046875 0.015625h-0.03125v-0.03125h0.015625c0.0078125 0 0.015625-0.0078125 0.015625-0.015625v-0.015625zm0-0.046875h0.0625v0.03125h-0.0625z"/>
  </symbol>
  <symbol id="i" overflow="visible">
   <path d="m0.17188-0.09375v0.09375h-0.046875v-0.0625-0.03125-0.015625h-0.015625c-0.011719 0-0.023438 0.007813-0.03125 0.015625v0.015625 0.078125h-0.0625v-0.20312h0.0625v0.078125c0-0.007812 0.0039062-0.015625 0.015625-0.015625 0.007812-0.007813 0.019531-0.015625 0.03125-0.015625 0.007812 0 0.019531 0.007812 0.03125 0.015625 0.007812 0.011719 0.015625 0.027344 0.015625 0.046875z"/>
  </symbol>
  <symbol id="t" overflow="visible">
   <path d="m0.015625-0.15625h0.0625v0.15625h-0.0625zm0-0.046875h0.0625v0.03125h-0.0625z"/>
  </symbol>
  <symbol id="h" overflow="visible">
   <path d="m0.17188-0.09375v0.09375h-0.046875v-0.0625-0.03125-0.015625h-0.015625c-0.011719 0-0.023438 0.007813-0.03125 0.015625v0.015625 0.078125h-0.0625v-0.15625h0.0625v0.03125c0-0.007812 0.0039062-0.015625 0.015625-0.015625 0.007812-0.007813 0.019531-0.015625 0.03125-0.015625 0.007812 0 0.019531 0.007812 0.03125 0.015625 0.007812 0.011719 0.015625 0.027344 0.015625 0.046875z"/>
  </symbol>
  <symbol id="f" overflow="visible">
   <path d="m0.078125-0.015625v0.078125h-0.0625v-0.21875h0.0625v0.03125c0-0.007812 0.0039062-0.015625 0.015625-0.015625 0.007812-0.007813 0.019531-0.015625 0.03125-0.015625 0.019531 0 0.035156 0.011719 0.046875 0.03125 0.007813 0.011719 0.015625 0.027344 0.015625 0.046875 0 0.03125-0.007812 0.054688-0.015625 0.0625-0.011719 0.011719-0.027344 0.015625-0.046875 0.015625h-0.03125c-0.011719-0.0078125-0.015625-0.015625-0.015625-0.015625zm0.03125-0.10938c-0.023438 0-0.03125 0.007812-0.03125 0.015625v0.03125 0.03125c0 0.011719 0.0078125 0.015625 0.03125 0.015625h0.015625v-0.046875-0.03125c0-0.007813-0.007812-0.015625-0.015625-0.015625z"/>
  </symbol>
  <symbol id="s" overflow="visible">
   <path d="m0.015625-0.20312h0.0625v0.20312h-0.0625z"/>
  </symbol>
  <symbol id="r" overflow="visible">
   <path d="m0.125-0.20312v0.03125h-0.03125-0.015625v0.015625h0.046875v0.046875h-0.046875v0.10938h-0.046875v-0.10938h-0.03125v-0.046875h0.03125c0-0.019531 0.0039062-0.03125 0.015625-0.03125 0.0078125-0.007812 0.019531-0.015625 0.03125-0.015625z"/>
  </symbol>
  <symbol id="e" overflow="visible">
   <path d="m0.09375-0.125c-0.011719 0-0.023438 0.007812-0.03125 0.015625v0.03125 0.046875h0.03125 0.015625c0.007813-0.0078125 0.015625-0.023438 0.015625-0.046875 0-0.0078125-0.007812-0.019531-0.015625-0.03125 0-0.007813-0.007813-0.015625-0.015625-0.015625zm0-0.03125c0.019531 0 0.035156 0.011719 0.046875 0.03125 0.019531 0.011719 0.03125 0.027344 0.03125 0.046875 0 0.03125-0.011719 0.054688-0.03125 0.0625-0.011719 0.011719-0.027344 0.015625-0.046875 0.015625-0.023438 0-0.042969-0.0039062-0.0625-0.015625-0.011719-0.0078125-0.015625-0.03125-0.015625-0.0625 0-0.019531 0.0039062-0.035156 0.015625-0.046875 0.019531-0.019531 0.039062-0.03125 0.0625-0.03125z"/>
  </symbol>
  <symbol id="q" overflow="visible">
   <path d="m0.15625-0.125 0.015625-0.015625c0.007813-0.007813 0.019531-0.015625 0.03125-0.015625 0.019531 0 0.035156 0.007812 0.046875 0.015625 0.007812 0.011719 0.015625 0.027344 0.015625 0.046875v0.09375h-0.046875v-0.078125c0-0.019531-0.007812-0.03125-0.015625-0.03125h-0.015625s-0.007812 0.007813-0.015625 0.015625v0.015625 0.078125h-0.046875v-0.078125c0-0.019531-0.007812-0.03125-0.015625-0.03125h-0.015625c-0.011719 0-0.015625 0.007813-0.015625 0.015625v0.015625 0.078125h-0.0625v-0.15625h0.0625v0.03125c0-0.007812 0.0039062-0.015625 0.015625-0.015625 0.007812-0.007813 0.015625-0.015625 0.015625-0.015625 0.007813 0 0.019531 0.007812 0.03125 0.015625 0.007813 0 0.015625 0.007813 0.015625 0.015625z"/>
  </symbol>
  <symbol id="p" overflow="visible">
   <path d="m0.03125-0.20312h0.046875l0.078125 0.14062v-0.14062h0.046875v0.20312h-0.0625l-0.0625-0.14062v0.14062h-0.046875z"/>
  </symbol>
  <symbol id="o" overflow="visible">
   <path d="m0.015625-0.0625v-0.09375h0.046875v0.015625 0.046875 0.015625 0.03125h0.015625v0.015625h0.015625c0.007812 0 0.015625-0.0039062 0.015625-0.015625 0.007813-0.0078125 0.015625-0.019531 0.015625-0.03125v-0.078125h0.046875v0.15625h-0.046875v-0.015625c-0.011719 0-0.023438 0.0078125-0.03125 0.015625h-0.015625c-0.023438 0-0.039062-0.0039062-0.046875-0.015625-0.011719-0.0078125-0.015625-0.023438-0.015625-0.046875z"/>
  </symbol>
  <symbol id="n" overflow="visible">
   <path d="m0.03125-0.20312h0.078125c0.03125 0 0.050781 0.007813 0.0625 0.015625 0.007813 0.011719 0.015625 0.03125 0.015625 0.0625 0 0.011719-0.007812 0.027344-0.015625 0.046875-0.011719 0.011719-0.03125 0.015625-0.0625 0.015625h-0.03125v0.0625h-0.046875zm0.046875 0.046875v0.046875h0.03125 0.015625c0.007812-0.007813 0.015625-0.015625 0.015625-0.015625 0-0.019531-0.007813-0.03125-0.015625-0.03125h-0.015625z"/>
  </symbol>
  <symbol id="m" overflow="visible">
   <path d="m0.14062-0.14062v0.03125h-0.03125v-0.015625c-0.023438 0-0.039062 0.007812-0.046875 0.015625v0.03125 0.03125c0.0078125 0.011719 0.023438 0.015625 0.046875 0.015625h0.015625c0.007812 0 0.015625-0.0039062 0.015625-0.015625v0.046875h-0.03125-0.015625c-0.023438 0-0.042969-0.0039062-0.0625-0.015625-0.011719-0.0078125-0.015625-0.03125-0.015625-0.0625 0-0.019531 0.0039062-0.035156 0.015625-0.046875 0.019531-0.019531 0.039062-0.03125 0.0625-0.03125h0.015625c0.007813 0 0.019531 0.007812 0.03125 0.015625z"/>
  </symbol>
 </defs>
 <g>
  <path d="m463.25 528.45v31.551h-226.51v-31.551c2.2266-27.426 20.039-50.016 45.996-56.422-10.48-6.4062-13.848-19.223-14.555-32.637-14.77-1.9023-13.738-25.09 1.9531-25.09h8.6328c21.559-45.617 30.953-119.25 18.191-167.75-10.211-3.3672-10.047-19.117-0.054688-22.535-3.5312-5.918-1.6289-14.934 5.375-17.703-4.2891-7.0039-0.86719-18.68 9.9922-18.68h7.7109c0.16406-34.266-6.5703-60.008-20.801-89.875h2.2266c2.5508-14.879 11.785-20.363 25.957-20.363-1.0859-4.6172 1.5742-10.211 7.7656-10.211h5.4844v-20.691h-19.008c-3.1484 0-5.7578-2.5508-5.7578-5.7578v-8.2539c0-3.1484 2.6055-5.7578 5.7578-5.7578h19.008v-20.961c0-3.2031 2.5508-5.7578 5.7578-5.7578h7.2227c3.2031 0 5.7578 2.5508 5.7578 5.7578v20.961h19.008c3.1484 0 5.7578 2.6055 5.7578 5.7578v8.2539c0 3.2031-2.6055 5.7578-5.7578 5.7578h-19.008v20.691h5.4844c6.3008 0 8.8516 5.5938 7.7656 10.211 14.172 0 23.406 5.4844 25.957 20.363h1.9531c-11.785 28.348-20.746 57.508-20.527 89.875h7.7109c11.078 0 14.281 11.621 9.9375 18.625 7.168 2.7148 8.9062 11.73 5.375 17.703 10.266 3.3672 10.102 19.117 0 22.535-12.98 50.449-3.4766 120.23 18.191 167.8h8.6328c16.074 0 16.398 23.133 1.9531 25.09-0.65234 13.414-4.0742 26.23-14.555 32.637 26.609 6.5703 43.824 29.707 45.996 56.422z"/>
  <use x="236.746094" y="560.816406" xlink:href="#u"/>
  <use x="236.945312" y="560.816406" xlink:href="#d"/>
  <use x="237.078125" y="560.816406" xlink:href="#c"/>
  <use x="237.261719" y="560.816406" xlink:href="#a"/>
  <use x="237.445313" y="560.816406" xlink:href="#b"/>
  <use x="237.574219" y="560.816406" xlink:href="#c"/>
  <use x="237.761719" y="560.816406" xlink:href="#l"/>
  <use x="238.050781" y="560.816406" xlink:href="#k"/>
  <use x="238.242188" y="560.816406" xlink:href="#j"/>
  <use x="238.515625" y="560.816406" xlink:href="#b"/>
  <use x="238.644531" y="560.816406" xlink:href="#a"/>
  <use x="238.828125" y="560.816406" xlink:href="#g"/>
  <use x="238.921875" y="560.816406" xlink:href="#i"/>
  <use x="239.113281" y="560.816406" xlink:href="#t"/>
  <use x="239.207031" y="560.816406" xlink:href="#h"/>
  <use x="239.496094" y="560.816406" xlink:href="#f"/>
  <use x="239.691406" y="560.816406" xlink:href="#a"/>
  <use x="239.871094" y="560.816406" xlink:href="#s"/>
  <use x="239.964844" y="560.816406" xlink:href="#a"/>
  <use x="240.148438" y="560.816406" xlink:href="#f"/>
  <use x="240.34375" y="560.816406" xlink:href="#f"/>
  <use x="240.539062" y="560.816406" xlink:href="#a"/>
  <use x="236.746094" y="561.085938" xlink:href="#r"/>
  <use x="236.863281" y="561.085938" xlink:href="#d"/>
  <use x="236.996094" y="561.085938" xlink:href="#e"/>
  <use x="237.183594" y="561.085938" xlink:href="#q"/>
  <use x="237.5625" y="561.085938" xlink:href="#b"/>
  <use x="237.691406" y="561.085938" xlink:href="#i"/>
  <use x="237.882812" y="561.085938" xlink:href="#c"/>
  <use x="238.164062" y="561.085938" xlink:href="#p"/>
  <use x="238.390625" y="561.085938" xlink:href="#e"/>
  <use x="238.578125" y="561.085938" xlink:href="#o"/>
  <use x="238.769531" y="561.085938" xlink:href="#h"/>
  <use x="239.058594" y="561.085938" xlink:href="#n"/>
  <use x="239.257812" y="561.085938" xlink:href="#d"/>
  <use x="239.390625" y="561.085938" xlink:href="#e"/>
  <use x="239.578125" y="561.085938" xlink:href="#g"/>
  <use x="239.671875" y="561.085938" xlink:href="#c"/>
  <use x="239.855469" y="561.085938" xlink:href="#m"/>
  <use x="240.015625" y="561.085938" xlink:href="#b"/>
 </g>
</svg>
