<?xml version="1.0" encoding="UTF-8"?>
<svg width="700pt" height="700pt" version="1.1" viewBox="0 0 700 700" xmlns="http://www.w3.org/2000/svg" xmlns:xlink="http://www.w3.org/1999/xlink">
 <defs>
  <symbol id="u" overflow="visible">
   <path d="m0.25-0.015625c-0.011719 0.011719-0.027344 0.015625-0.046875 0.015625h-0.03125c-0.054687 0-0.09375-0.0078125-0.125-0.03125-0.023438-0.03125-0.03125-0.066406-0.03125-0.10938 0-0.039063 0.0078125-0.070313 0.03125-0.09375 0.03125-0.03125 0.070313-0.046875 0.125-0.046875 0.007813 0 0.019531 0.007812 0.03125 0.015625h0.046875v0.0625c-0.011719-0.007813-0.023438-0.015625-0.03125-0.015625-0.011719-0.007812-0.027344-0.015625-0.046875-0.015625-0.023437 0-0.042969 0.011719-0.0625 0.03125-0.011719 0.011719-0.015625 0.03125-0.015625 0.0625s0.0039062 0.058594 0.015625 0.078125c0.019531 0.011719 0.039063 0.015625 0.0625 0.015625h0.046875c0.007812-0.0078125 0.019531-0.019531 0.03125-0.03125z"/>
  </symbol>
  <symbol id="d" overflow="visible">
   <path d="m0.1875-0.14062c-0.011719-0.007813-0.023438-0.015625-0.03125-0.015625-0.023438 0-0.039062 0.007812-0.046875 0.015625-0.011719 0.011719-0.015625 0.027344-0.015625 0.046875v0.09375h-0.0625v-0.20312h0.0625v0.03125c0.007812-0.019531 0.019531-0.03125 0.03125-0.03125 0.007812-0.007813 0.023438-0.015625 0.046875-0.015625h0.015625z"/>
  </symbol>
  <symbol id="c" overflow="visible">
   <path d="m0.23438-0.10938v0.03125h-0.15625c0.0078125 0.011719 0.015625 0.023438 0.015625 0.03125h0.046875 0.03125c0.019531 0 0.039063-0.0039062 0.0625-0.015625v0.046875c-0.023437 0.011719-0.042969 0.015625-0.0625 0.015625h-0.03125c-0.042969 0-0.074219-0.0039062-0.09375-0.015625-0.023438-0.019531-0.03125-0.046875-0.03125-0.078125 0-0.039062 0.0078125-0.070312 0.03125-0.09375 0.019531-0.019531 0.046875-0.03125 0.078125-0.03125s0.054688 0.011719 0.078125 0.03125c0.019531 0.023438 0.03125 0.046875 0.03125 0.078125zm-0.0625-0.015625c0-0.007812-0.007813-0.019531-0.015625-0.03125-0.011719-0.007812-0.023438-0.015625-0.03125-0.015625-0.011719 0-0.023438 0.007813-0.03125 0.015625 0 0.011719-0.0078125 0.023438-0.015625 0.03125z"/>
  </symbol>
  <symbol id="a" overflow="visible">
   <path d="m0.125-0.09375c-0.011719 0-0.023438 0.0078125-0.03125 0.015625-0.011719 0-0.015625 0.0078125-0.015625 0.015625v0.015625h0.03125 0.03125c0.007813-0.0078125 0.015625-0.019531 0.015625-0.03125v-0.015625zm0.09375-0.03125v0.125h-0.0625v-0.03125c-0.011719 0.011719-0.023438 0.023438-0.03125 0.03125h-0.03125c-0.023438 0-0.042969-0.0039062-0.0625-0.015625-0.011719-0.0078125-0.015625-0.023438-0.015625-0.046875 0-0.019531 0.0039062-0.035156 0.015625-0.046875 0.019531-0.007813 0.050781-0.015625 0.09375-0.015625h0.03125v-0.015625c0-0.007813-0.007812-0.015625-0.015625-0.015625 0-0.007812-0.011719-0.015625-0.03125-0.015625-0.011719 0-0.027344 0.007813-0.046875 0.015625h-0.03125v-0.046875h0.03125c0.019531-0.007813 0.039062-0.015625 0.0625-0.015625 0.03125 0 0.050781 0.011719 0.0625 0.03125 0.019531 0.011719 0.03125 0.03125 0.03125 0.0625z"/>
  </symbol>
  <symbol id="b" overflow="visible">
   <path d="m0.10938-0.26562v0.0625h0.0625v0.046875h-0.0625v0.078125 0.03125h0.015625 0.046875v0.046875h-0.0625c-0.023438 0-0.042969-0.0039062-0.0625-0.015625-0.011719-0.0078125-0.015625-0.03125-0.015625-0.0625v-0.078125h-0.03125v-0.046875h0.03125v-0.0625z"/>
  </symbol>
  <symbol id="l" overflow="visible">
   <path d="m0.17188-0.17188v-0.125h0.0625v0.29688h-0.0625v-0.03125c-0.011719 0.011719-0.023437 0.023438-0.03125 0.03125h-0.03125c-0.03125 0-0.058594-0.0039062-0.078125-0.015625-0.011719-0.019531-0.015625-0.046875-0.015625-0.078125 0-0.039062 0.0039062-0.070312 0.015625-0.09375 0.019531-0.019531 0.046875-0.03125 0.078125-0.03125 0.007813 0 0.019531 0.007812 0.03125 0.015625 0.007813 0 0.019531 0.011719 0.03125 0.03125zm-0.046875 0.125c0.007812 0 0.019531-0.0039062 0.03125-0.015625 0.007812-0.0078125 0.015625-0.019531 0.015625-0.03125 0-0.019531-0.007813-0.035156-0.015625-0.046875-0.011719-0.019531-0.023438-0.03125-0.03125-0.03125-0.011719 0-0.023438 0.011719-0.03125 0.03125-0.011719 0.011719-0.015625 0.027344-0.015625 0.046875 0 0.011719 0.0039062 0.023438 0.015625 0.03125 0.007812 0.011719 0.019531 0.015625 0.03125 0.015625z"/>
  </symbol>
  <symbol id="k" overflow="visible">
   <path d="m0.14062-0.046875c0.019531 0 0.03125-0.0039062 0.03125-0.015625 0.007813-0.0078125 0.015625-0.019531 0.015625-0.03125 0-0.019531-0.007812-0.035156-0.015625-0.046875 0-0.019531-0.011719-0.03125-0.03125-0.03125-0.011719 0-0.023437 0.011719-0.03125 0.03125-0.011719 0.011719-0.015625 0.027344-0.015625 0.046875 0 0.011719 0.0039062 0.023438 0.015625 0.03125 0.007813 0.011719 0.019531 0.015625 0.03125 0.015625zm-0.046875-0.125c0.007812-0.019531 0.019531-0.03125 0.03125-0.03125 0.007812-0.007813 0.023438-0.015625 0.046875-0.015625 0.019531 0 0.035156 0.011719 0.046875 0.03125 0.019531 0.023438 0.03125 0.054688 0.03125 0.09375 0 0.03125-0.011719 0.058594-0.03125 0.078125-0.011719 0.011719-0.027344 0.015625-0.046875 0.015625h-0.046875c-0.011719-0.0078125-0.023438-0.019531-0.03125-0.03125v0.03125h-0.0625v-0.29688h0.0625z"/>
  </symbol>
  <symbol id="j" overflow="visible">
   <path d="m0-0.20312h0.078125l0.046875 0.14062 0.046875-0.14062h0.078125l-0.09375 0.21875c-0.011719 0.019531-0.023438 0.035156-0.03125 0.046875-0.011719 0.0078125-0.027344 0.015625-0.046875 0.015625h-0.046875v-0.046875h0.03125 0.015625c0.0078125 0 0.015625-0.0078125 0.015625-0.015625v-0.015625z"/>
  </symbol>
  <symbol id="g" overflow="visible">
   <path d="m0.03125-0.20312h0.0625v0.20312c0 0.019531-0.0078125 0.035156-0.015625 0.046875-0.011719 0.019531-0.03125 0.03125-0.0625 0.03125h-0.03125v-0.046875h0.015625 0.015625c0.0078125 0 0.015625-0.011719 0.015625-0.03125zm0-0.09375h0.0625v0.0625h-0.0625z"/>
  </symbol>
  <symbol id="i" overflow="visible">
   <path d="m0.25-0.125v0.125h-0.078125v-0.09375-0.03125-0.015625c0-0.007813-0.007813-0.015625-0.015625-0.015625h-0.015625c-0.011719 0-0.023437 0.007812-0.03125 0.015625-0.011719 0.011719-0.015625 0.027344-0.015625 0.046875v0.09375h-0.0625v-0.29688h0.0625v0.125c0.007812-0.019531 0.019531-0.03125 0.03125-0.03125 0.007812-0.007813 0.023438-0.015625 0.046875-0.015625 0.019531 0 0.035156 0.011719 0.046875 0.03125 0.019531 0.011719 0.03125 0.03125 0.03125 0.0625z"/>
  </symbol>
  <symbol id="t" overflow="visible">
   <path d="m0.03125-0.20312h0.0625v0.20312h-0.0625zm0-0.09375h0.0625v0.0625h-0.0625z"/>
  </symbol>
  <symbol id="h" overflow="visible">
   <path d="m0.25-0.125v0.125h-0.078125v-0.09375-0.03125-0.015625c0-0.007813-0.007813-0.015625-0.015625-0.015625h-0.015625c-0.011719 0-0.023437 0.007812-0.03125 0.015625-0.011719 0.011719-0.015625 0.027344-0.015625 0.046875v0.09375h-0.0625v-0.20312h0.0625v0.03125c0.007812-0.019531 0.019531-0.03125 0.03125-0.03125 0.007812-0.007813 0.023438-0.015625 0.046875-0.015625 0.019531 0 0.035156 0.011719 0.046875 0.03125 0.019531 0.011719 0.03125 0.03125 0.03125 0.0625z"/>
  </symbol>
  <symbol id="f" overflow="visible">
   <path d="m0.09375-0.03125v0.10938h-0.0625v-0.28125h0.0625v0.03125c0.007812-0.019531 0.019531-0.03125 0.03125-0.03125 0.007812-0.007813 0.023438-0.015625 0.046875-0.015625 0.019531 0 0.035156 0.011719 0.046875 0.03125 0.019531 0.023438 0.03125 0.054688 0.03125 0.09375 0 0.03125-0.011719 0.058594-0.03125 0.078125-0.011719 0.011719-0.027344 0.015625-0.046875 0.015625h-0.046875c-0.011719-0.0078125-0.023438-0.019531-0.03125-0.03125zm0.046875-0.14062c-0.011719 0-0.023437 0.011719-0.03125 0.03125-0.011719 0.011719-0.015625 0.027344-0.015625 0.046875 0 0.011719 0.0039062 0.023438 0.015625 0.03125 0.007813 0.011719 0.019531 0.015625 0.03125 0.015625 0.019531 0 0.03125-0.0039062 0.03125-0.015625 0.007813-0.0078125 0.015625-0.019531 0.015625-0.03125 0-0.019531-0.007812-0.035156-0.015625-0.046875 0-0.019531-0.011719-0.03125-0.03125-0.03125z"/>
  </symbol>
  <symbol id="s" overflow="visible">
   <path d="m0.03125-0.29688h0.0625v0.29688h-0.0625z"/>
  </symbol>
  <symbol id="r" overflow="visible">
   <path d="m0.17188-0.29688v0.046875h-0.046875l-0.015625 0.015625v0.015625 0.015625h0.0625v0.046875h-0.0625v0.15625h-0.0625v-0.15625h-0.046875v-0.046875h0.046875v-0.015625c0-0.019531 0.0039062-0.035156 0.015625-0.046875 0.0078125-0.019531 0.03125-0.03125 0.0625-0.03125z"/>
  </symbol>
  <symbol id="e" overflow="visible">
   <path d="m0.125-0.17188c-0.011719 0-0.023438 0.007813-0.03125 0.015625-0.011719 0.011719-0.015625 0.03125-0.015625 0.0625 0 0.011719 0.0039062 0.023438 0.015625 0.03125 0.007812 0.011719 0.019531 0.015625 0.03125 0.015625 0.019531 0 0.03125-0.0039062 0.03125-0.015625 0.007812-0.0078125 0.015625-0.019531 0.015625-0.03125 0-0.03125-0.007813-0.050781-0.015625-0.0625 0-0.007812-0.011719-0.015625-0.03125-0.015625zm0-0.046875c0.039062 0 0.070312 0.011719 0.09375 0.03125 0.019531 0.023438 0.03125 0.054688 0.03125 0.09375 0 0.03125-0.011719 0.058594-0.03125 0.078125-0.023438 0.011719-0.054688 0.015625-0.09375 0.015625-0.03125 0-0.058594-0.0039062-0.078125-0.015625-0.023438-0.019531-0.03125-0.046875-0.03125-0.078125 0-0.039062 0.0078125-0.070312 0.03125-0.09375 0.019531-0.019531 0.046875-0.03125 0.078125-0.03125z"/>
  </symbol>
  <symbol id="q" overflow="visible">
   <path d="m0.21875-0.17188c0.007812-0.007813 0.019531-0.019531 0.03125-0.03125 0.007812-0.007813 0.023438-0.015625 0.046875-0.015625 0.019531 0 0.035156 0.011719 0.046875 0.03125 0.019531 0.011719 0.03125 0.03125 0.03125 0.0625v0.125h-0.078125v-0.10938-0.015625c0-0.007812-0.007813-0.015625-0.015625-0.015625 0-0.007813-0.007812-0.015625-0.015625-0.015625-0.011719 0-0.023437 0.007812-0.03125 0.015625v0.046875 0.09375h-0.0625v-0.10938c0-0.019531-0.007813-0.03125-0.015625-0.03125 0-0.007813-0.007812-0.015625-0.015625-0.015625-0.011719 0-0.023437 0.007812-0.03125 0.015625-0.011719 0.011719-0.015625 0.027344-0.015625 0.046875v0.09375h-0.0625v-0.20312h0.0625v0.03125c0.007812-0.019531 0.019531-0.03125 0.03125-0.03125 0.007812-0.007813 0.019531-0.015625 0.03125-0.015625 0.019531 0 0.035156 0.007812 0.046875 0.015625 0.007813 0.011719 0.015625 0.023437 0.015625 0.03125z"/>
  </symbol>
  <symbol id="p" overflow="visible">
   <path d="m0.03125-0.28125h0.078125l0.10938 0.1875v-0.1875h0.0625v0.28125h-0.078125l-0.10938-0.1875v0.1875h-0.0625z"/>
  </symbol>
  <symbol id="o" overflow="visible">
   <path d="m0.03125-0.078125v-0.125h0.0625v0.015625 0.046875 0.03125 0.046875c0.007812 0.011719 0.015625 0.015625 0.015625 0.015625h0.015625c0.007812 0 0.019531-0.0039062 0.03125-0.015625 0.007812-0.0078125 0.015625-0.023438 0.015625-0.046875v-0.09375h0.0625v0.20312h-0.0625v-0.03125c-0.011719 0.011719-0.023437 0.023438-0.03125 0.03125h-0.046875c-0.023438 0-0.039062-0.0039062-0.046875-0.015625-0.011719-0.019531-0.015625-0.039062-0.015625-0.0625z"/>
  </symbol>
  <symbol id="n" overflow="visible">
   <path d="m0.03125-0.28125h0.125c0.03125 0 0.054688 0.011719 0.078125 0.03125 0.019531 0.011719 0.03125 0.03125 0.03125 0.0625s-0.011719 0.058594-0.03125 0.078125c-0.023437 0.011719-0.046875 0.015625-0.078125 0.015625h-0.046875v0.09375h-0.078125zm0.078125 0.0625v0.078125h0.03125c0.019531 0 0.03125-0.003906 0.03125-0.015625 0.007813-0.007812 0.015625-0.019531 0.015625-0.03125 0-0.007812-0.007812-0.015625-0.015625-0.015625 0-0.007813-0.011719-0.015625-0.03125-0.015625z"/>
  </symbol>
  <symbol id="m" overflow="visible">
   <path d="m0.20312-0.20312v0.0625c-0.011719-0.007813-0.023437-0.015625-0.03125-0.015625-0.011719-0.007812-0.023437-0.015625-0.03125-0.015625-0.011719 0-0.027344 0.011719-0.046875 0.03125-0.011719 0.011719-0.015625 0.027344-0.015625 0.046875 0 0.011719 0.0039062 0.023438 0.015625 0.03125 0.019531 0.011719 0.035156 0.015625 0.046875 0.015625h0.03125c0.007813 0 0.019531-0.0039062 0.03125-0.015625v0.0625h-0.03125-0.03125c-0.042969 0-0.074219-0.0039062-0.09375-0.015625-0.023438-0.019531-0.03125-0.046875-0.03125-0.078125 0-0.039062 0.0078125-0.070312 0.03125-0.09375 0.019531-0.019531 0.050781-0.03125 0.09375-0.03125 0.007813 0 0.019531 0.007812 0.03125 0.015625h0.03125z"/>
  </symbol>
 </defs>
 <g>
  <path d="m232.22 391.64c-23.207-48.234 15.32-94.422 46.945-126.73 25.785-26.316 71.516-78.723 57.184-119.07-8.7969 29.047-31.172 35.039-60.824 36.25-20.172 0.83594-19.945 16.531-33.066 20.098-22.297 5.9141-42.621-18.656-39.359-39.816 1.2148-8.1133 47.551-57.031 57.258-70.152 6.0664-8.1914 7.3555-11.223 11.754-18.277 5.2344-8.2656 14.789-14.105 17.672-18.352 1.5156-2.2734 0.074219-6.5977-0.75781-10.012-4.0195-16.988-2.0469-29.652-0.75781-45.578 20.934 7.9648 31.93 16.305 49.066 30.41l7.8125 6.5977c1.668 0.22656-1.8945-1.4414-1.5156-4.3984 1.2148-9.6328 8.6445-13.652 18.961-13.195 73.035 2.957 128.7 88.125 138.25 154.33 8.6445 59.383-21.918 153.04-34.355 217.36 12.133 4.5508 11.832 25.938-6.3711 25.938-0.75781 14.863-6.0664 29.047-17.973 36.859 38.223 9.5547 59.762 40.879 61.809 78.949v27.152h-307.91v-27.152c2.0469-38.07 23.586-69.395 61.809-78.949-11.906-7.8125-17.215-21.992-17.973-36.859-17.062 0-18.883-19.793-7.6602-25.406z"/>
  <use x="196.046875" y="561.136719" xlink:href="#u"/>
  <use x="196.324219" y="561.136719" xlink:href="#d"/>
  <use x="196.511719" y="561.136719" xlink:href="#c"/>
  <use x="196.769531" y="561.136719" xlink:href="#a"/>
  <use x="197.023438" y="561.136719" xlink:href="#b"/>
  <use x="197.207031" y="561.136719" xlink:href="#c"/>
  <use x="197.460938" y="561.136719" xlink:href="#l"/>
  <use x="197.867188" y="561.136719" xlink:href="#k"/>
  <use x="198.136719" y="561.136719" xlink:href="#j"/>
  <use x="198.515625" y="561.136719" xlink:href="#b"/>
  <use x="198.699219" y="561.136719" xlink:href="#a"/>
  <use x="198.953125" y="561.136719" xlink:href="#g"/>
  <use x="199.082031" y="561.136719" xlink:href="#i"/>
  <use x="199.351563" y="561.136719" xlink:href="#t"/>
  <use x="199.484375" y="561.136719" xlink:href="#h"/>
  <use x="199.886719" y="561.136719" xlink:href="#f"/>
  <use x="200.15625" y="561.136719" xlink:href="#a"/>
  <use x="200.414062" y="561.136719" xlink:href="#s"/>
  <use x="200.542969" y="561.136719" xlink:href="#a"/>
  <use x="200.796875" y="561.136719" xlink:href="#f"/>
  <use x="201.070313" y="561.136719" xlink:href="#f"/>
  <use x="201.339844" y="561.136719" xlink:href="#a"/>
  <use x="196.046875" y="561.515625" xlink:href="#r"/>
  <use x="196.210938" y="561.515625" xlink:href="#d"/>
  <use x="196.398438" y="561.515625" xlink:href="#e"/>
  <use x="196.65625" y="561.515625" xlink:href="#q"/>
  <use x="197.183594" y="561.515625" xlink:href="#b"/>
  <use x="197.367188" y="561.515625" xlink:href="#i"/>
  <use x="197.636719" y="561.515625" xlink:href="#c"/>
  <use x="198.027344" y="561.515625" xlink:href="#p"/>
  <use x="198.34375" y="561.515625" xlink:href="#e"/>
  <use x="198.601562" y="561.515625" xlink:href="#o"/>
  <use x="198.875" y="561.515625" xlink:href="#h"/>
  <use x="199.273438" y="561.515625" xlink:href="#n"/>
  <use x="199.554688" y="561.515625" xlink:href="#d"/>
  <use x="199.742188" y="561.515625" xlink:href="#e"/>
  <use x="200" y="561.515625" xlink:href="#g"/>
  <use x="200.128906" y="561.515625" xlink:href="#c"/>
  <use x="200.386719" y="561.515625" xlink:href="#m"/>
  <use x="200.613281" y="561.515625" xlink:href="#b"/>
 </g>
</svg>
