<?xml version="1.0" encoding="UTF-8"?>
<svg width="700pt" height="700pt" version="1.1" viewBox="0 0 700 700" xmlns="http://www.w3.org/2000/svg" xmlns:xlink="http://www.w3.org/1999/xlink">
 <defs>
  <symbol id="u" overflow="visible">
   <path d="m0.25-0.015625c-0.011719 0.011719-0.027344 0.015625-0.046875 0.015625h-0.046875c-0.042969 0-0.078125-0.0078125-0.10938-0.03125-0.023438-0.019531-0.03125-0.050781-0.03125-0.09375 0-0.050781 0.0078125-0.085938 0.03125-0.10938 0.03125-0.03125 0.066406-0.046875 0.10938-0.046875 0.019531 0 0.035156 0.007812 0.046875 0.015625 0.019531 0 0.035156 0.007813 0.046875 0.015625v0.046875c-0.011719-0.007813-0.027344-0.015625-0.046875-0.015625h-0.03125c-0.03125 0-0.054687 0.011719-0.0625 0.03125-0.011719 0.011719-0.015625 0.03125-0.015625 0.0625 0 0.023438 0.0039062 0.042969 0.015625 0.0625 0.007813 0.011719 0.03125 0.015625 0.0625 0.015625h0.03125c0.019531-0.0078125 0.035156-0.015625 0.046875-0.015625z"/>
  </symbol>
  <symbol id="d" overflow="visible">
   <path d="m0.17188-0.14062c0-0.007813-0.007813-0.015625-0.015625-0.015625-0.023438 0-0.039062 0.007812-0.046875 0.015625-0.011719 0.011719-0.015625 0.027344-0.015625 0.046875v0.09375h-0.0625v-0.20312h0.0625v0.03125c0.007812-0.007813 0.019531-0.015625 0.03125-0.015625 0.007812-0.007812 0.019531-0.015625 0.03125-0.015625h0.015625z"/>
  </symbol>
  <symbol id="c" overflow="visible">
   <path d="m0.23438-0.10938v0.03125h-0.15625c0.0078125 0.011719 0.015625 0.023438 0.015625 0.03125h0.046875 0.03125c0.019531 0 0.035156-0.0039062 0.046875-0.015625v0.046875c-0.011719 0.011719-0.027344 0.015625-0.046875 0.015625h-0.046875c-0.03125 0-0.058594-0.0039062-0.078125-0.015625-0.023438-0.019531-0.03125-0.046875-0.03125-0.078125 0-0.039062 0.0078125-0.066406 0.03125-0.078125 0.019531-0.019531 0.046875-0.03125 0.078125-0.03125s0.054688 0.011719 0.078125 0.03125c0.019531 0.011719 0.03125 0.03125 0.03125 0.0625zm-0.0625-0.015625c0-0.007812-0.007813-0.015625-0.015625-0.015625-0.011719-0.007813-0.023438-0.015625-0.03125-0.015625-0.011719 0-0.023438 0.007812-0.03125 0.015625 0 0-0.0078125 0.007813-0.015625 0.015625z"/>
  </symbol>
  <symbol id="a" overflow="visible">
   <path d="m0.125-0.09375c-0.011719 0-0.023438 0.0078125-0.03125 0.015625-0.011719 0-0.015625 0.0078125-0.015625 0.015625v0.015625h0.03125 0.03125c0.007813-0.0078125 0.015625-0.019531 0.015625-0.03125v-0.015625zm0.09375-0.015625v0.10938h-0.0625v-0.03125c-0.011719 0.011719-0.023438 0.023438-0.03125 0.03125h-0.03125c-0.023438 0-0.042969-0.0039062-0.0625-0.015625-0.011719-0.0078125-0.015625-0.023438-0.015625-0.046875 0-0.019531 0.0039062-0.035156 0.015625-0.046875 0.019531-0.007813 0.046875-0.015625 0.078125-0.015625h0.046875c0-0.019531-0.007812-0.03125-0.015625-0.03125h-0.03125-0.046875-0.03125v-0.046875h0.03125 0.046875c0.039063 0 0.066406 0.011719 0.078125 0.03125 0.019531 0.011719 0.03125 0.03125 0.03125 0.0625z"/>
  </symbol>
  <symbol id="b" overflow="visible">
   <path d="m0.10938-0.26562v0.0625h0.0625v0.046875h-0.0625v0.09375 0.015625h0.015625 0.03125v0.046875h-0.046875c-0.03125 0-0.054688-0.0039062-0.0625-0.015625-0.011719-0.0078125-0.015625-0.023438-0.015625-0.046875v-0.09375h-0.03125v-0.046875h0.03125v-0.0625z"/>
  </symbol>
  <symbol id="l" overflow="visible">
   <path d="m0.17188-0.17188v-0.10938h0.0625v0.28125h-0.0625v-0.03125c-0.011719 0.011719-0.023437 0.023438-0.03125 0.03125h-0.03125c-0.03125 0-0.058594-0.0039062-0.078125-0.015625-0.011719-0.019531-0.015625-0.046875-0.015625-0.078125 0-0.039062 0.0039062-0.066406 0.015625-0.078125 0.019531-0.019531 0.046875-0.03125 0.078125-0.03125 0.007813 0 0.019531 0.007813 0.03125 0.015625 0.007813 0 0.019531 0.007812 0.03125 0.015625zm-0.046875 0.125h0.03125c0.007812-0.0078125 0.015625-0.023438 0.015625-0.046875 0-0.019531-0.007813-0.035156-0.015625-0.046875-0.011719-0.007813-0.023438-0.015625-0.03125-0.015625-0.011719 0-0.023438 0.007812-0.03125 0.015625-0.011719 0.011719-0.015625 0.027344-0.015625 0.046875 0 0.023438 0.0039062 0.039062 0.015625 0.046875h0.03125z"/>
  </symbol>
  <symbol id="k" overflow="visible">
   <path d="m0.14062-0.046875h0.015625c0.007812-0.0078125 0.015625-0.023438 0.015625-0.046875 0-0.019531-0.007813-0.035156-0.015625-0.046875 0-0.007813-0.007812-0.015625-0.015625-0.015625-0.023437 0-0.039063 0.007812-0.046875 0.015625v0.046875 0.03125c0.007812 0.011719 0.023438 0.015625 0.046875 0.015625zm-0.046875-0.125c0.007812-0.007813 0.019531-0.015625 0.03125-0.015625 0.007812-0.007812 0.019531-0.015625 0.03125-0.015625 0.03125 0 0.050781 0.011719 0.0625 0.03125 0.019531 0.011719 0.03125 0.039063 0.03125 0.078125 0 0.03125-0.011719 0.058594-0.03125 0.078125-0.011719 0.011719-0.03125 0.015625-0.0625 0.015625h-0.03125c-0.011719-0.0078125-0.023438-0.019531-0.03125-0.03125v0.03125h-0.0625v-0.28125h0.0625z"/>
  </symbol>
  <symbol id="j" overflow="visible">
   <path d="m0-0.20312h0.0625l0.0625 0.14062 0.046875-0.14062h0.0625l-0.078125 0.21875c-0.011719 0.019531-0.023438 0.035156-0.03125 0.046875-0.011719 0.0078125-0.027344 0.015625-0.046875 0.015625h-0.046875v-0.046875h0.03125 0.015625c0.0078125 0 0.015625-0.0078125 0.015625-0.015625v-0.015625z"/>
  </symbol>
  <symbol id="g" overflow="visible">
   <path d="m0.03125-0.20312h0.0625v0.20312c0 0.019531-0.0078125 0.035156-0.015625 0.046875-0.011719 0.019531-0.03125 0.03125-0.0625 0.03125h-0.03125v-0.046875h0.015625c0.0078125 0 0.015625-0.0078125 0.015625-0.015625 0.0078125 0 0.015625-0.0078125 0.015625-0.015625zm0-0.078125h0.0625v0.046875h-0.0625z"/>
  </symbol>
  <symbol id="i" overflow="visible">
   <path d="m0.23438-0.125v0.125h-0.0625v-0.09375-0.03125c0-0.007812-0.007813-0.015625-0.015625-0.015625v-0.015625h-0.015625c-0.011719 0-0.023437 0.007812-0.03125 0.015625-0.011719 0.011719-0.015625 0.027344-0.015625 0.046875v0.09375h-0.0625v-0.28125h0.0625v0.10938c0.007812-0.007813 0.019531-0.015625 0.03125-0.015625 0.007812-0.007812 0.019531-0.015625 0.03125-0.015625 0.03125 0 0.050781 0.011719 0.0625 0.03125 0.007812 0.011719 0.015625 0.027344 0.015625 0.046875z"/>
  </symbol>
  <symbol id="t" overflow="visible">
   <path d="m0.03125-0.20312h0.0625v0.20312h-0.0625zm0-0.078125h0.0625v0.046875h-0.0625z"/>
  </symbol>
  <symbol id="h" overflow="visible">
   <path d="m0.23438-0.125v0.125h-0.0625v-0.09375-0.03125c0-0.007812-0.007813-0.015625-0.015625-0.015625v-0.015625h-0.015625c-0.011719 0-0.023437 0.007812-0.03125 0.015625-0.011719 0.011719-0.015625 0.027344-0.015625 0.046875v0.09375h-0.0625v-0.20312h0.0625v0.03125c0.007812-0.007813 0.019531-0.015625 0.03125-0.015625 0.007812-0.007812 0.019531-0.015625 0.03125-0.015625 0.03125 0 0.050781 0.011719 0.0625 0.03125 0.007812 0.011719 0.015625 0.027344 0.015625 0.046875z"/>
  </symbol>
  <symbol id="f" overflow="visible">
   <path d="m0.09375-0.03125v0.10938h-0.0625v-0.28125h0.0625v0.03125c0.007812-0.007813 0.019531-0.015625 0.03125-0.015625 0.007812-0.007812 0.019531-0.015625 0.03125-0.015625 0.03125 0 0.050781 0.011719 0.0625 0.03125 0.019531 0.011719 0.03125 0.039063 0.03125 0.078125 0 0.03125-0.011719 0.058594-0.03125 0.078125-0.011719 0.011719-0.03125 0.015625-0.0625 0.015625h-0.03125c-0.011719-0.0078125-0.023438-0.019531-0.03125-0.03125zm0.046875-0.125c-0.023437 0-0.039063 0.007812-0.046875 0.015625v0.046875 0.03125c0.007812 0.011719 0.023438 0.015625 0.046875 0.015625h0.015625c0.007812-0.0078125 0.015625-0.023438 0.015625-0.046875 0-0.019531-0.007813-0.035156-0.015625-0.046875 0-0.007813-0.007812-0.015625-0.015625-0.015625z"/>
  </symbol>
  <symbol id="s" overflow="visible">
   <path d="m0.03125-0.28125h0.0625v0.28125h-0.0625z"/>
  </symbol>
  <symbol id="r" overflow="visible">
   <path d="m0.15625-0.28125v0.046875h-0.03125-0.015625v0.015625 0.015625h0.046875v0.046875h-0.046875v0.15625h-0.0625v-0.15625h-0.046875v-0.046875h0.046875v-0.015625c0-0.019531 0.0039062-0.035156 0.015625-0.046875 0.0078125-0.007813 0.023438-0.015625 0.046875-0.015625z"/>
  </symbol>
  <symbol id="e" overflow="visible">
   <path d="m0.125-0.15625c-0.011719 0-0.023438 0.007812-0.03125 0.015625-0.011719 0.011719-0.015625 0.027344-0.015625 0.046875 0 0.023438 0.0039062 0.039062 0.015625 0.046875h0.03125 0.03125c0.007812-0.0078125 0.015625-0.023438 0.015625-0.046875 0-0.019531-0.007813-0.035156-0.015625-0.046875 0-0.007813-0.011719-0.015625-0.03125-0.015625zm0-0.046875c0.03125 0 0.054688 0.011719 0.078125 0.03125 0.019531 0.011719 0.03125 0.039063 0.03125 0.078125 0 0.03125-0.011719 0.058594-0.03125 0.078125-0.023437 0.011719-0.046875 0.015625-0.078125 0.015625s-0.058594-0.0039062-0.078125-0.015625c-0.023438-0.019531-0.03125-0.046875-0.03125-0.078125 0-0.039062 0.0078125-0.066406 0.03125-0.078125 0.019531-0.019531 0.046875-0.03125 0.078125-0.03125z"/>
  </symbol>
  <symbol id="q" overflow="visible">
   <path d="m0.21875-0.17188c0.007812-0.007813 0.019531-0.015625 0.03125-0.015625 0.007812-0.007812 0.019531-0.015625 0.03125-0.015625 0.019531 0 0.035156 0.011719 0.046875 0.03125 0.019531 0.011719 0.03125 0.027344 0.03125 0.046875v0.125h-0.078125v-0.10938-0.03125c0-0.007813-0.007812-0.015625-0.015625-0.015625-0.011719 0-0.023437 0.007812-0.03125 0.015625-0.011719 0.011719-0.015625 0.027344-0.015625 0.046875v0.09375h-0.0625v-0.10938-0.03125c0-0.007813-0.011719-0.015625-0.03125-0.015625-0.011719 0-0.023438 0.007812-0.03125 0.015625v0.046875 0.09375h-0.0625v-0.20312h0.0625v0.03125c0.007812-0.007813 0.019531-0.015625 0.03125-0.015625 0.007812-0.007812 0.019531-0.015625 0.03125-0.015625 0.007812 0 0.019531 0.007813 0.03125 0.015625 0.007812 0 0.019531 0.007812 0.03125 0.015625z"/>
  </symbol>
  <symbol id="p" overflow="visible">
   <path d="m0.03125-0.26562h0.078125l0.09375 0.17188v-0.17188h0.078125v0.26562h-0.078125l-0.10938-0.1875v0.1875h-0.0625z"/>
  </symbol>
  <symbol id="o" overflow="visible">
   <path d="m0.03125-0.078125v-0.125h0.0625v0.015625 0.046875 0.03125 0.046875c0.007812 0.011719 0.015625 0.015625 0.015625 0.015625h0.015625c0.007812 0 0.019531-0.0039062 0.03125-0.015625 0.007812-0.0078125 0.015625-0.023438 0.015625-0.046875v-0.09375h0.0625v0.20312h-0.0625v-0.03125c-0.011719 0.011719-0.023437 0.023438-0.03125 0.03125h-0.046875c-0.023438 0-0.039062-0.0039062-0.046875-0.015625-0.011719-0.019531-0.015625-0.039062-0.015625-0.0625z"/>
  </symbol>
  <symbol id="n" overflow="visible">
   <path d="m0.03125-0.26562h0.125c0.03125 0 0.050781 0.011719 0.0625 0.03125 0.019531 0.011719 0.03125 0.03125 0.03125 0.0625 0 0.023437-0.011719 0.042969-0.03125 0.0625-0.011719 0.011719-0.03125 0.015625-0.0625 0.015625h-0.046875v0.09375h-0.078125zm0.078125 0.046875v0.078125h0.03125 0.03125c0.007813-0.007813 0.015625-0.019531 0.015625-0.03125 0-0.019531-0.007812-0.03125-0.015625-0.03125-0.011719-0.007813-0.023437-0.015625-0.03125-0.015625z"/>
  </symbol>
  <symbol id="m" overflow="visible">
   <path d="m0.20312-0.20312v0.0625c-0.023437-0.007813-0.039063-0.015625-0.046875-0.015625h-0.015625c-0.023437 0-0.039063 0.007812-0.046875 0.015625-0.011719 0.011719-0.015625 0.027344-0.015625 0.046875 0 0.011719 0.0039062 0.023438 0.015625 0.03125 0.007812 0.011719 0.023438 0.015625 0.046875 0.015625h0.03125c0.007813 0 0.019531-0.0039062 0.03125-0.015625v0.0625h-0.046875-0.03125c-0.03125 0-0.058594-0.0039062-0.078125-0.015625-0.023438-0.019531-0.03125-0.046875-0.03125-0.078125 0-0.039062 0.0078125-0.066406 0.03125-0.078125 0.019531-0.019531 0.046875-0.03125 0.078125-0.03125h0.03125 0.046875z"/>
  </symbol>
 </defs>
 <g>
  <path d="m275.62 189.64h148.75c-1.9883-12.008-12.449-21.07-24.828-21.07h-99.094c-12.379 0-22.84 9.0625-24.828 21.07zm74.41-189.64c69.77 0 112.65 75.074 79.715 134.82-5.5273 10.168-13.039 19.156-21.883 26.449 16.43 3.832 24.977 19.008 24.977 36.543h-18.125c2.2852 52.824 11.348 106.39 31.902 153.76h10.977c22.398 0 23.207 31.828 3.6094 35.363 0 20.406-4.125 36.762-23.723 47.445 36.617 9.3555 64.246 41.922 66.086 80.895l0.074219 44.719h-307.3l0.074219-44.719c1.8438-38.383 28.879-71.391 66.086-80.895-19.598-10.684-23.723-27.039-23.723-47.445-19.965-3.4609-18.344-35.363 3.6094-35.363h10.977c21.883-47.887 29.766-101.45 31.902-153.76h-18.125c0-17.535 8.5469-32.711 25.051-36.543-8.9141-7.293-16.43-16.281-21.953-26.449-32.934-59.75 9.9453-134.82 79.789-134.82zm0 8.1797c-63.582 0-102.63 68.371-72.645 122.74 6.5586 11.934 15.988 22.027 27.332 29.469h90.547c11.348-7.4414 20.777-17.535 27.332-29.469 29.984-54.371-9.0625-122.74-72.57-122.74zm-56.582 189.64c-1.7695 48.477-11.715 111.18-30.941 153.76h174.98c-19.82-42.289-29.176-107.12-30.941-153.76h-113.09zm164.15 181.24c12.82 0 12.523-19.301 0-19.301h-215.2c-12.82 0-12.523 19.301 0 19.301zm-4.5664 8.1797h-206.07c0 23.504 10.387 44.5 37.133 44.5h131.8c26.742 0 37.133-20.996 37.133-44.5zm42.289 128.05c-2.1367-41.922-37.059-75.367-79.422-75.367h-131.88c-42.215 0-77.211 33.449-79.348 75.367zm0.14844 8.1797h-290.94v28.363h290.94z"/>
  <use x="196.351562" y="561.105469" xlink:href="#u"/>
  <use x="196.621094" y="561.105469" xlink:href="#d"/>
  <use x="196.804688" y="561.105469" xlink:href="#c"/>
  <use x="197.054688" y="561.105469" xlink:href="#a"/>
  <use x="197.300781" y="561.105469" xlink:href="#b"/>
  <use x="197.476562" y="561.105469" xlink:href="#c"/>
  <use x="197.726562" y="561.105469" xlink:href="#l"/>
  <use x="198.121094" y="561.105469" xlink:href="#k"/>
  <use x="198.382812" y="561.105469" xlink:href="#j"/>
  <use x="198.753906" y="561.105469" xlink:href="#b"/>
  <use x="198.929688" y="561.105469" xlink:href="#a"/>
  <use x="199.175781" y="561.105469" xlink:href="#g"/>
  <use x="199.304688" y="561.105469" xlink:href="#i"/>
  <use x="199.566406" y="561.105469" xlink:href="#t"/>
  <use x="199.691406" y="561.105469" xlink:href="#h"/>
  <use x="200.082031" y="561.105469" xlink:href="#f"/>
  <use x="200.347656" y="561.105469" xlink:href="#a"/>
  <use x="200.59375" y="561.105469" xlink:href="#s"/>
  <use x="200.71875" y="561.105469" xlink:href="#a"/>
  <use x="200.96875" y="561.105469" xlink:href="#f"/>
  <use x="201.234375" y="561.105469" xlink:href="#f"/>
  <use x="201.496094" y="561.105469" xlink:href="#a"/>
  <use x="196.351562" y="561.472656" xlink:href="#r"/>
  <use x="196.511719" y="561.472656" xlink:href="#d"/>
  <use x="196.695312" y="561.472656" xlink:href="#e"/>
  <use x="196.945312" y="561.472656" xlink:href="#q"/>
  <use x="197.457031" y="561.472656" xlink:href="#b"/>
  <use x="197.636719" y="561.472656" xlink:href="#i"/>
  <use x="197.898438" y="561.472656" xlink:href="#c"/>
  <use x="198.273438" y="561.472656" xlink:href="#p"/>
  <use x="198.582031" y="561.472656" xlink:href="#e"/>
  <use x="198.835938" y="561.472656" xlink:href="#o"/>
  <use x="199.097656" y="561.472656" xlink:href="#h"/>
  <use x="199.488281" y="561.472656" xlink:href="#n"/>
  <use x="199.757812" y="561.472656" xlink:href="#d"/>
  <use x="199.941406" y="561.472656" xlink:href="#e"/>
  <use x="200.195312" y="561.472656" xlink:href="#g"/>
  <use x="200.320312" y="561.472656" xlink:href="#c"/>
  <use x="200.570312" y="561.472656" xlink:href="#m"/>
  <use x="200.789062" y="561.472656" xlink:href="#b"/>
 </g>
</svg>
