<?xml version="1.0" encoding="UTF-8"?>
<svg width="700pt" height="700pt" version="1.1" viewBox="0 0 700 700" xmlns="http://www.w3.org/2000/svg" xmlns:xlink="http://www.w3.org/1999/xlink">
 <defs>
  <symbol id="u" overflow="visible">
   <path d="m0.1875-0.015625c-0.011719 0.011719-0.023438 0.015625-0.03125 0.015625h-0.03125c-0.03125 0-0.058594-0.0039062-0.078125-0.015625-0.023438-0.019531-0.03125-0.050781-0.03125-0.09375 0-0.03125 0.0078125-0.054687 0.03125-0.078125 0.019531-0.019531 0.046875-0.03125 0.078125-0.03125 0.007812 0 0.019531 0.007812 0.03125 0.015625 0.007812 0 0.019531 0.007813 0.03125 0.015625v0.03125h-0.03125c-0.011719-0.007812-0.023438-0.015625-0.03125-0.015625-0.011719 0-0.023438 0.007813-0.03125 0.015625-0.011719 0.011719-0.015625 0.027344-0.015625 0.046875 0 0.023438 0.0039062 0.042969 0.015625 0.0625 0.007812 0.011719 0.019531 0.015625 0.03125 0.015625h0.03125c0.007812-0.0078125 0.019531-0.015625 0.03125-0.015625z"/>
  </symbol>
  <symbol id="d" overflow="visible">
   <path d="m0.14062-0.10938h-0.015625c0-0.007813-0.007812-0.015625-0.015625-0.015625-0.011719 0-0.023438 0.007812-0.03125 0.015625v0.03125 0.078125h-0.0625v-0.15625h0.0625v0.03125c0-0.007812 0.0039062-0.015625 0.015625-0.015625 0.007812-0.007813 0.019531-0.015625 0.03125-0.015625h0.015625z"/>
  </symbol>
  <symbol id="c" overflow="visible">
   <path d="m0.17188-0.078125v0.015625h-0.10938v0.03125h0.046875 0.03125c0.007813-0.0078125 0.019531-0.015625 0.03125-0.015625v0.03125c-0.011719 0.011719-0.023437 0.015625-0.03125 0.015625h-0.03125c-0.03125 0-0.058594-0.0039062-0.078125-0.015625-0.011719-0.019531-0.015625-0.039062-0.015625-0.0625 0-0.019531 0.0039062-0.035156 0.015625-0.046875 0.019531-0.019531 0.039062-0.03125 0.0625-0.03125 0.019531 0 0.035156 0.011719 0.046875 0.03125 0.019531 0.011719 0.03125 0.027344 0.03125 0.046875zm-0.046875-0.015625c0-0.007812-0.007812-0.015625-0.015625-0.015625 0-0.007813-0.007813-0.015625-0.015625-0.015625-0.011719 0-0.023438 0.007812-0.03125 0.015625v0.015625z"/>
  </symbol>
  <symbol id="a" overflow="visible">
   <path d="m0.09375-0.078125c-0.011719 0-0.023438 0.0078125-0.03125 0.015625v0.015625 0.015625h0.015625 0.03125c0.007813-0.0078125 0.015625-0.019531 0.015625-0.03125v-0.015625zm0.078125-0.015625v0.09375h-0.046875v-0.015625c-0.011719 0-0.023438 0.0078125-0.03125 0.015625h-0.03125-0.03125c-0.011719-0.0078125-0.015625-0.023438-0.015625-0.046875 0-0.019531 0.0039062-0.03125 0.015625-0.03125 0.0078125-0.0078125 0.03125-0.015625 0.0625-0.015625h0.03125v-0.015625h-0.015625c0-0.007813-0.011719-0.015625-0.03125-0.015625h-0.03125c-0.011719 0-0.015625 0.007812-0.015625 0.015625v-0.046875h0.03125 0.03125c0.019531 0 0.035156 0.007812 0.046875 0.015625 0.019531 0.011719 0.03125 0.027344 0.03125 0.046875z"/>
  </symbol>
  <symbol id="b" overflow="visible">
   <path d="m0.078125-0.20312v0.046875h0.046875v0.03125h-0.046875v0.078125 0.015625h0.015625 0.03125v0.03125h-0.046875c-0.023438 0-0.039062-0.0039062-0.046875-0.015625v-0.03125-0.078125h-0.03125v-0.03125h0.03125v-0.046875z"/>
  </symbol>
  <symbol id="l" overflow="visible">
   <path d="m0.125-0.125v-0.09375h0.046875v0.21875h-0.046875v-0.015625s-0.007812 0.0078125-0.015625 0.015625h-0.03125c-0.023438 0-0.039062-0.0039062-0.046875-0.015625-0.011719-0.019531-0.015625-0.039062-0.015625-0.0625 0-0.019531 0.0039062-0.035156 0.015625-0.046875 0.0078125-0.019531 0.023438-0.03125 0.046875-0.03125 0.0078125 0 0.019531 0.007812 0.03125 0.015625 0.007813 0 0.015625 0.007813 0.015625 0.015625zm-0.03125 0.09375h0.015625c0.007813-0.0078125 0.015625-0.023438 0.015625-0.046875 0-0.0078125-0.007812-0.019531-0.015625-0.03125 0-0.007813-0.007813-0.015625-0.015625-0.015625-0.011719 0-0.023438 0.007812-0.03125 0.015625v0.03125 0.046875h0.03125z"/>
  </symbol>
  <symbol id="k" overflow="visible">
   <path d="m0.10938-0.03125h0.015625c0.007812-0.0078125 0.015625-0.023438 0.015625-0.046875 0-0.0078125-0.007813-0.019531-0.015625-0.03125 0-0.007813-0.007812-0.015625-0.015625-0.015625-0.011719 0-0.023438 0.007812-0.03125 0.015625v0.03125 0.03125c0.0078125 0.011719 0.019531 0.015625 0.03125 0.015625zm-0.03125-0.09375c0-0.007812 0.0039062-0.015625 0.015625-0.015625 0.007812-0.007813 0.019531-0.015625 0.03125-0.015625 0.019531 0 0.035156 0.011719 0.046875 0.03125 0.007813 0.011719 0.015625 0.027344 0.015625 0.046875 0 0.023438-0.007812 0.042969-0.015625 0.0625-0.011719 0.011719-0.027344 0.015625-0.046875 0.015625h-0.03125c-0.011719-0.0078125-0.015625-0.015625-0.015625-0.015625v0.015625h-0.0625v-0.21875h0.0625z"/>
  </symbol>
  <symbol id="j" overflow="visible">
   <path d="m0-0.15625h0.046875l0.046875 0.10938 0.03125-0.10938h0.0625l-0.078125 0.17188c0 0.019531-0.007813 0.03125-0.015625 0.03125-0.011719 0.0078125-0.023438 0.015625-0.03125 0.015625h-0.03125v-0.03125h0.015625c0.0078125 0 0.015625-0.0078125 0.015625-0.015625h0.015625v-0.015625z"/>
  </symbol>
  <symbol id="g" overflow="visible">
   <path d="m0.015625-0.15625h0.0625v0.15625c0 0.019531-0.0078125 0.035156-0.015625 0.046875-0.011719 0.0078125-0.027344 0.015625-0.046875 0.015625h-0.03125v-0.03125h0.015625c0.0078125 0 0.015625-0.0078125 0.015625-0.015625v-0.015625zm0-0.0625h0.0625v0.046875h-0.0625z"/>
  </symbol>
  <symbol id="i" overflow="visible">
   <path d="m0.1875-0.09375v0.09375h-0.0625v-0.078125-0.015625-0.015625h-0.015625v-0.015625c-0.011719 0-0.023438 0.007812-0.03125 0.015625v0.03125 0.078125h-0.0625v-0.21875h0.0625v0.09375c0-0.007812 0.0039062-0.015625 0.015625-0.015625 0.007812-0.007813 0.019531-0.015625 0.03125-0.015625 0.019531 0 0.035156 0.007812 0.046875 0.015625 0.007813 0.011719 0.015625 0.027344 0.015625 0.046875z"/>
  </symbol>
  <symbol id="t" overflow="visible">
   <path d="m0.015625-0.15625h0.0625v0.15625h-0.0625zm0-0.0625h0.0625v0.046875h-0.0625z"/>
  </symbol>
  <symbol id="h" overflow="visible">
   <path d="m0.1875-0.09375v0.09375h-0.0625v-0.078125-0.015625-0.015625h-0.015625v-0.015625c-0.011719 0-0.023438 0.007812-0.03125 0.015625v0.03125 0.078125h-0.0625v-0.15625h0.0625v0.03125c0-0.007812 0.0039062-0.015625 0.015625-0.015625 0.007812-0.007813 0.019531-0.015625 0.03125-0.015625 0.019531 0 0.035156 0.007812 0.046875 0.015625 0.007813 0.011719 0.015625 0.027344 0.015625 0.046875z"/>
  </symbol>
  <symbol id="f" overflow="visible">
   <path d="m0.078125-0.015625v0.078125h-0.0625v-0.21875h0.0625v0.03125c0-0.007812 0.0039062-0.015625 0.015625-0.015625 0.007812-0.007813 0.019531-0.015625 0.03125-0.015625 0.019531 0 0.035156 0.011719 0.046875 0.03125 0.007813 0.011719 0.015625 0.027344 0.015625 0.046875 0 0.023438-0.007812 0.042969-0.015625 0.0625-0.011719 0.011719-0.027344 0.015625-0.046875 0.015625h-0.03125c-0.011719-0.0078125-0.015625-0.015625-0.015625-0.015625zm0.03125-0.10938c-0.011719 0-0.023438 0.007812-0.03125 0.015625v0.03125 0.03125c0.0078125 0.011719 0.019531 0.015625 0.03125 0.015625h0.015625c0.007812-0.0078125 0.015625-0.023438 0.015625-0.046875 0-0.0078125-0.007813-0.019531-0.015625-0.03125 0-0.007813-0.007812-0.015625-0.015625-0.015625z"/>
  </symbol>
  <symbol id="s" overflow="visible">
   <path d="m0.015625-0.21875h0.0625v0.21875h-0.0625z"/>
  </symbol>
  <symbol id="r" overflow="visible">
   <path d="m0.125-0.21875v0.03125h-0.03125s-0.0078125 0.007812-0.015625 0.015625v0.015625h0.046875v0.03125h-0.046875v0.125h-0.046875v-0.125h-0.03125v-0.03125h0.03125c0-0.019531 0.0039062-0.035156 0.015625-0.046875 0.0078125-0.007813 0.023438-0.015625 0.046875-0.015625z"/>
  </symbol>
  <symbol id="e" overflow="visible">
   <path d="m0.09375-0.125c-0.011719 0-0.023438 0.007812-0.03125 0.015625v0.03125 0.046875h0.03125 0.015625c0.007813-0.0078125 0.015625-0.023438 0.015625-0.046875 0-0.019531-0.007812-0.03125-0.015625-0.03125 0-0.007813-0.007813-0.015625-0.015625-0.015625zm0-0.03125c0.03125 0 0.050781 0.011719 0.0625 0.03125 0.019531 0.011719 0.03125 0.027344 0.03125 0.046875 0 0.023438-0.011719 0.042969-0.03125 0.0625-0.011719 0.011719-0.03125 0.015625-0.0625 0.015625-0.023438 0-0.042969-0.0039062-0.0625-0.015625-0.011719-0.019531-0.015625-0.039062-0.015625-0.0625 0-0.019531 0.0039062-0.035156 0.015625-0.046875 0.019531-0.019531 0.039062-0.03125 0.0625-0.03125z"/>
  </symbol>
  <symbol id="q" overflow="visible">
   <path d="m0.17188-0.125c0-0.007812 0.003906-0.015625 0.015625-0.015625 0.007812-0.007813 0.019531-0.015625 0.03125-0.015625 0.019531 0 0.035156 0.007812 0.046875 0.015625 0.007813 0.011719 0.015625 0.027344 0.015625 0.046875v0.09375h-0.0625v-0.078125-0.015625-0.015625c0-0.007813-0.007812-0.015625-0.015625-0.015625-0.011719 0-0.023437 0.007812-0.03125 0.015625v0.03125 0.078125h-0.046875v-0.078125c0-0.019531-0.007812-0.03125-0.015625-0.03125v-0.015625c-0.011719 0-0.023438 0.007812-0.03125 0.015625v0.03125 0.078125h-0.0625v-0.15625h0.0625v0.03125c0-0.007812 0.0039062-0.015625 0.015625-0.015625 0.007812-0.007813 0.019531-0.015625 0.03125-0.015625 0.007812 0 0.015625 0.007812 0.015625 0.015625 0.007813 0 0.019531 0.007813 0.03125 0.015625z"/>
  </symbol>
  <symbol id="p" overflow="visible">
   <path d="m0.03125-0.20312h0.046875l0.078125 0.14062v-0.14062h0.0625v0.20312h-0.0625l-0.078125-0.14062v0.14062h-0.046875z"/>
  </symbol>
  <symbol id="o" overflow="visible">
   <path d="m0.015625-0.0625v-0.09375h0.0625v0.015625 0.03125 0.03125 0.03125 0.015625h0.015625c0.007812 0 0.015625-0.0039062 0.015625-0.015625 0.007813-0.0078125 0.015625-0.019531 0.015625-0.03125v-0.078125h0.046875v0.15625h-0.046875v-0.015625c-0.011719 0-0.023438 0.0078125-0.03125 0.015625h-0.015625c-0.023438 0-0.039062-0.0039062-0.046875-0.015625-0.011719-0.0078125-0.015625-0.023438-0.015625-0.046875z"/>
  </symbol>
  <symbol id="n" overflow="visible">
   <path d="m0.03125-0.20312h0.078125c0.03125 0 0.050781 0.007813 0.0625 0.015625 0.007813 0.011719 0.015625 0.027344 0.015625 0.046875 0 0.023437-0.007812 0.039063-0.015625 0.046875-0.011719 0.011719-0.03125 0.015625-0.0625 0.015625h-0.03125v0.078125h-0.046875zm0.046875 0.03125v0.0625h0.03125 0.015625c0.007812-0.007813 0.015625-0.019531 0.015625-0.03125 0-0.007813-0.007813-0.015625-0.015625-0.015625 0-0.007812-0.007812-0.015625-0.015625-0.015625z"/>
  </symbol>
  <symbol id="m" overflow="visible">
   <path d="m0.15625-0.15625v0.046875h-0.03125c0-0.007813-0.007812-0.015625-0.015625-0.015625-0.011719 0-0.023438 0.007812-0.03125 0.015625-0.011719 0.011719-0.015625 0.023438-0.015625 0.03125 0 0.011719 0.0039062 0.023438 0.015625 0.03125 0.0078125 0.011719 0.019531 0.015625 0.03125 0.015625h0.015625c0.007812-0.0078125 0.019531-0.015625 0.03125-0.015625v0.046875h-0.03125-0.015625c-0.03125 0-0.058594-0.0039062-0.078125-0.015625-0.011719-0.019531-0.015625-0.039062-0.015625-0.0625 0-0.019531 0.0039062-0.035156 0.015625-0.046875 0.019531-0.019531 0.046875-0.03125 0.078125-0.03125h0.015625 0.03125z"/>
  </symbol>
 </defs>
 <g>
  <path d="m467.93 527.2v32.797h-235.86v-32.797c1.3555-28.219 21.547-52.309 49.027-58.922-9.8398-5.7695-16.457-16.398-16.457-28.559v-5.3164c-15.156-2.0938-14.082-26.07 2.207-26.07h9.0469c22.109-46.086 32.062-125.09 18.887-174.68-10.633-3.5078-10.52-19.906-0.054688-23.523-3.6758-6.1055-1.6953-15.496 5.5977-18.379-4.4688-7.293-0.90625-19.453 10.406-19.453h7.5781c-0.50781-31.441-15.383-57.566-33.309-82.223-1.9219-2.7148 1.1875-6.2773 4.1836-4.5234 0.62109 0.33984 4.5234 2.4883 9.7266 5.2031 0-24.484 13.289-45.297 37.547-52.023-16.004-12.781-7.0117-38.734 13.57-38.734 20.527 0 29.52 25.957 13.516 38.734 24.258 6.7305 37.547 27.539 37.547 52.023 5.7109-2.9414 9.7812-5.2578 9.8398-5.2578 2.9414-1.6406 5.9961 1.9219 4.0703 4.582-17.984 24.711-32.797 50.836-33.309 82.223h7.5781c11.535 0 14.871 12.102 10.348 19.395 7.4648 2.8281 9.2734 12.215 5.5977 18.434 10.688 3.4492 10.52 19.906 0 23.469-13.176 51.461-3.1094 126.73 18.945 174.73h8.9922c16.684 0 17.078 23.922 2.207 26.07v5.3164c0 12.156-6.6172 22.789-16.457 28.559 27.484 6.6172 47.672 30.707 49.027 58.922z"/>
  <use x="232.066406" y="560.847656" xlink:href="#u"/>
  <use x="232.277344" y="560.847656" xlink:href="#d"/>
  <use x="232.414062" y="560.847656" xlink:href="#c"/>
  <use x="232.605469" y="560.847656" xlink:href="#a"/>
  <use x="232.796875" y="560.847656" xlink:href="#b"/>
  <use x="232.933594" y="560.847656" xlink:href="#c"/>
  <use x="233.125" y="560.847656" xlink:href="#l"/>
  <use x="233.425781" y="560.847656" xlink:href="#k"/>
  <use x="233.628906" y="560.847656" xlink:href="#j"/>
  <use x="233.910156" y="560.847656" xlink:href="#b"/>
  <use x="234.046875" y="560.847656" xlink:href="#a"/>
  <use x="234.238281" y="560.847656" xlink:href="#g"/>
  <use x="234.332031" y="560.847656" xlink:href="#i"/>
  <use x="234.535156" y="560.847656" xlink:href="#t"/>
  <use x="234.632812" y="560.847656" xlink:href="#h"/>
  <use x="234.929688" y="560.847656" xlink:href="#f"/>
  <use x="235.132812" y="560.847656" xlink:href="#a"/>
  <use x="235.324219" y="560.847656" xlink:href="#s"/>
  <use x="235.421875" y="560.847656" xlink:href="#a"/>
  <use x="235.613281" y="560.847656" xlink:href="#f"/>
  <use x="235.816406" y="560.847656" xlink:href="#f"/>
  <use x="236.015625" y="560.847656" xlink:href="#a"/>
  <use x="232.066406" y="561.132812" xlink:href="#r"/>
  <use x="232.191406" y="561.132812" xlink:href="#d"/>
  <use x="232.332031" y="561.132812" xlink:href="#e"/>
  <use x="232.523438" y="561.132812" xlink:href="#q"/>
  <use x="232.917969" y="561.132812" xlink:href="#b"/>
  <use x="233.054688" y="561.132812" xlink:href="#i"/>
  <use x="233.253906" y="561.132812" xlink:href="#c"/>
  <use x="233.542969" y="561.132812" xlink:href="#p"/>
  <use x="233.78125" y="561.132812" xlink:href="#e"/>
  <use x="233.976563" y="561.132812" xlink:href="#o"/>
  <use x="234.175781" y="561.132812" xlink:href="#h"/>
  <use x="234.476563" y="561.132812" xlink:href="#n"/>
  <use x="234.683594" y="561.132812" xlink:href="#d"/>
  <use x="234.824219" y="561.132812" xlink:href="#e"/>
  <use x="235.015625" y="561.132812" xlink:href="#g"/>
  <use x="235.113281" y="561.132812" xlink:href="#c"/>
  <use x="235.304688" y="561.132812" xlink:href="#m"/>
  <use x="235.472656" y="561.132812" xlink:href="#b"/>
 </g>
</svg>
