<?xml version="1.0" encoding="UTF-8"?>
<svg width="700pt" height="700pt" version="1.1" viewBox="0 0 700 700" xmlns="http://www.w3.org/2000/svg" xmlns:xlink="http://www.w3.org/1999/xlink">
 <defs>
  <symbol id="u" overflow="visible">
   <path d="m0.28125-0.015625c-0.011719 0.011719-0.027344 0.015625-0.046875 0.015625h-0.046875c-0.054688 0-0.09375-0.0078125-0.125-0.03125-0.03125-0.03125-0.046875-0.070312-0.046875-0.125 0-0.039062 0.015625-0.078125 0.046875-0.10938s0.070312-0.046875 0.125-0.046875c0.007812 0 0.023438 0.007812 0.046875 0.015625 0.019531 0 0.035156 0.007813 0.046875 0.015625v0.0625c-0.011719-0.007812-0.027344-0.015625-0.046875-0.015625-0.011719-0.007813-0.027344-0.015625-0.046875-0.015625-0.023438 0-0.042969 0.011719-0.0625 0.03125-0.011719 0.011719-0.015625 0.03125-0.015625 0.0625s0.003906 0.058594 0.015625 0.078125c0.019531 0.023438 0.039062 0.03125 0.0625 0.03125h0.046875c0.019531-0.0078125 0.035156-0.019531 0.046875-0.03125z"/>
  </symbol>
  <symbol id="d" overflow="visible">
   <path d="m0.20312-0.15625c-0.011719-0.007812-0.023437-0.015625-0.03125-0.015625-0.023437 0-0.039063 0.007813-0.046875 0.015625-0.011719 0.011719-0.015625 0.027344-0.015625 0.046875v0.10938h-0.078125v-0.21875h0.078125v0.03125c0.007813-0.019531 0.019531-0.03125 0.03125-0.03125 0.007813-0.007812 0.023437-0.015625 0.046875-0.015625h0.015625z"/>
  </symbol>
  <symbol id="c" overflow="visible">
   <path d="m0.26562-0.10938v0.015625h-0.17188c0 0.023438 0.0039062 0.039062 0.015625 0.046875h0.046875 0.03125c0.019531-0.0078125 0.039062-0.019531 0.0625-0.03125v0.0625c-0.023438 0.011719-0.042969 0.015625-0.0625 0.015625h-0.03125c-0.054688 0-0.089844-0.0078125-0.10938-0.03125-0.023438-0.019531-0.03125-0.046875-0.03125-0.078125 0-0.039063 0.0078125-0.070313 0.03125-0.09375 0.019531-0.019531 0.050781-0.03125 0.09375-0.03125 0.03125 0 0.054687 0.011719 0.078125 0.03125 0.03125 0.023437 0.046875 0.054687 0.046875 0.09375zm-0.078125-0.03125c0-0.007813-0.007812-0.019531-0.015625-0.03125-0.011719-0.007813-0.023437-0.015625-0.03125-0.015625-0.011719 0-0.023437 0.007812-0.03125 0.015625-0.011719 0.011719-0.015625 0.023437-0.015625 0.03125z"/>
  </symbol>
  <symbol id="a" overflow="visible">
   <path d="m0.14062-0.10938c-0.023437 0-0.039063 0.007813-0.046875 0.015625v0.015625 0.03125h0.03125c0.019531 0 0.03125-0.0039062 0.03125-0.015625 0.007812-0.0078125 0.015625-0.019531 0.015625-0.03125v-0.015625zm0.10938-0.015625v0.125h-0.078125v-0.03125c-0.011719 0.011719-0.023437 0.023438-0.03125 0.03125h-0.046875c-0.023438 0-0.042969-0.0039062-0.0625-0.015625-0.011719-0.0078125-0.015625-0.03125-0.015625-0.0625 0-0.019531 0.0078125-0.035156 0.03125-0.046875 0.019531-0.007812 0.046875-0.015625 0.078125-0.015625h0.046875v-0.015625c0-0.007812-0.007813-0.015625-0.015625-0.015625 0-0.007813-0.015625-0.015625-0.046875-0.015625-0.011719 0-0.027344 0.007812-0.046875 0.015625h-0.03125v-0.046875h0.046875c0.019531-0.007812 0.035156-0.015625 0.046875-0.015625 0.039062 0 0.070312 0.011719 0.09375 0.03125 0.019531 0.011719 0.03125 0.039063 0.03125 0.078125z"/>
  </symbol>
  <symbol id="b" overflow="visible">
   <path d="m0.10938-0.29688v0.078125h0.078125v0.046875h-0.078125v0.09375 0.03125h0.03125 0.046875v0.046875h-0.0625c-0.03125 0-0.058594-0.0039062-0.078125-0.015625-0.011719-0.0078125-0.015625-0.03125-0.015625-0.0625v-0.09375h-0.03125v-0.046875h0.03125v-0.078125z"/>
  </symbol>
  <symbol id="l" overflow="visible">
   <path d="m0.1875-0.1875v-0.125h0.078125v0.3125h-0.078125v-0.03125c-0.011719 0.011719-0.023438 0.023438-0.03125 0.03125h-0.046875c-0.023438 0-0.042969-0.0078125-0.0625-0.03125-0.023438-0.019531-0.03125-0.046875-0.03125-0.078125 0-0.039063 0.0078125-0.070313 0.03125-0.09375 0.019531-0.019531 0.039062-0.03125 0.0625-0.03125 0.019531 0 0.035156 0.007813 0.046875 0.015625 0.007812 0 0.019531 0.011719 0.03125 0.03125zm-0.046875 0.14062c0.007813 0 0.019531-0.0039062 0.03125-0.015625 0.007813-0.0078125 0.015625-0.023438 0.015625-0.046875 0-0.019531-0.007812-0.035156-0.015625-0.046875-0.011719-0.019531-0.023437-0.03125-0.03125-0.03125-0.023437 0-0.039063 0.011719-0.046875 0.03125v0.046875 0.046875c0.007812 0.011719 0.023438 0.015625 0.046875 0.015625z"/>
  </symbol>
  <symbol id="k" overflow="visible">
   <path d="m0.15625-0.046875c0.019531 0 0.03125-0.0039062 0.03125-0.015625 0.007812-0.0078125 0.015625-0.023438 0.015625-0.046875 0-0.019531-0.007813-0.035156-0.015625-0.046875 0-0.019531-0.011719-0.03125-0.03125-0.03125-0.023438 0-0.039062 0.011719-0.046875 0.03125v0.046875 0.046875c0.007813 0.011719 0.023437 0.015625 0.046875 0.015625zm-0.046875-0.14062c0.007813-0.019531 0.019531-0.03125 0.03125-0.03125 0.007813-0.007812 0.023437-0.015625 0.046875-0.015625 0.019531 0 0.039062 0.011719 0.0625 0.03125 0.019531 0.023437 0.03125 0.054687 0.03125 0.09375 0 0.03125-0.011719 0.058594-0.03125 0.078125-0.023438 0.023438-0.042969 0.03125-0.0625 0.03125h-0.046875c-0.011719-0.0078125-0.023437-0.019531-0.03125-0.03125v0.03125h-0.078125v-0.3125h0.078125z"/>
  </symbol>
  <symbol id="j" overflow="visible">
   <path d="m0-0.21875h0.078125l0.0625 0.14062 0.046875-0.14062h0.078125l-0.09375 0.23438c-0.011719 0.03125-0.027344 0.050781-0.046875 0.0625-0.011719 0.0078125-0.027344 0.015625-0.046875 0.015625h-0.046875v-0.0625h0.03125 0.015625c0.0078125 0 0.019531-0.0078125 0.03125-0.015625v-0.015625z"/>
  </symbol>
  <symbol id="g" overflow="visible">
   <path d="m0.03125-0.21875h0.078125v0.21875c0 0.019531-0.011719 0.039062-0.03125 0.0625-0.011719 0.019531-0.03125 0.03125-0.0625 0.03125h-0.03125v-0.0625h0.015625 0.015625c0.0078125 0 0.015625-0.011719 0.015625-0.03125zm0-0.09375h0.078125v0.046875h-0.078125z"/>
  </symbol>
  <symbol id="i" overflow="visible">
   <path d="m0.26562-0.14062v0.14062h-0.078125v-0.10938-0.03125-0.015625c0-0.007812-0.007812-0.015625-0.015625-0.015625h-0.015625c-0.011719 0-0.023438 0.007813-0.03125 0.015625-0.011719 0.011719-0.015625 0.027344-0.015625 0.046875v0.10938h-0.078125v-0.3125h0.078125v0.125c0.007813-0.019531 0.019531-0.03125 0.03125-0.03125 0.007813-0.007812 0.023437-0.015625 0.046875-0.015625 0.019531 0 0.035156 0.011719 0.046875 0.03125 0.019531 0.011719 0.03125 0.03125 0.03125 0.0625z"/>
  </symbol>
  <symbol id="t" overflow="visible">
   <path d="m0.03125-0.21875h0.078125v0.21875h-0.078125zm0-0.09375h0.078125v0.046875h-0.078125z"/>
  </symbol>
  <symbol id="h" overflow="visible">
   <path d="m0.26562-0.14062v0.14062h-0.078125v-0.10938-0.03125-0.015625c0-0.007812-0.007812-0.015625-0.015625-0.015625h-0.015625c-0.011719 0-0.023438 0.007813-0.03125 0.015625-0.011719 0.011719-0.015625 0.027344-0.015625 0.046875v0.10938h-0.078125v-0.21875h0.078125v0.03125c0.007813-0.019531 0.019531-0.03125 0.03125-0.03125 0.007813-0.007812 0.023437-0.015625 0.046875-0.015625 0.019531 0 0.035156 0.011719 0.046875 0.03125 0.019531 0.011719 0.03125 0.03125 0.03125 0.0625z"/>
  </symbol>
  <symbol id="f" overflow="visible">
   <path d="m0.10938-0.03125v0.10938h-0.078125v-0.29688h0.078125v0.03125c0.007813-0.019531 0.019531-0.03125 0.03125-0.03125 0.007813-0.007812 0.023437-0.015625 0.046875-0.015625 0.019531 0 0.039062 0.011719 0.0625 0.03125 0.019531 0.023437 0.03125 0.054687 0.03125 0.09375 0 0.03125-0.011719 0.058594-0.03125 0.078125-0.023438 0.023438-0.042969 0.03125-0.0625 0.03125h-0.046875c-0.011719-0.0078125-0.023437-0.019531-0.03125-0.03125zm0.046875-0.15625c-0.023438 0-0.039062 0.011719-0.046875 0.03125v0.046875 0.046875c0.007813 0.011719 0.023437 0.015625 0.046875 0.015625 0.019531 0 0.03125-0.0039062 0.03125-0.015625 0.007812-0.0078125 0.015625-0.023438 0.015625-0.046875 0-0.019531-0.007813-0.035156-0.015625-0.046875 0-0.019531-0.011719-0.03125-0.03125-0.03125z"/>
  </symbol>
  <symbol id="s" overflow="visible">
   <path d="m0.03125-0.3125h0.078125v0.3125h-0.078125z"/>
  </symbol>
  <symbol id="r" overflow="visible">
   <path d="m0.1875-0.3125v0.046875h-0.046875-0.03125v0.03125 0.015625h0.078125v0.046875h-0.078125v0.17188h-0.0625v-0.17188h-0.046875v-0.046875h0.046875v-0.015625c0-0.03125 0.0039062-0.050781 0.015625-0.0625 0.0078125-0.007813 0.03125-0.015625 0.0625-0.015625z"/>
  </symbol>
  <symbol id="e" overflow="visible">
   <path d="m0.14062-0.1875c-0.023437 0-0.039063 0.007812-0.046875 0.015625v0.0625 0.046875c0.007812 0.011719 0.023438 0.015625 0.046875 0.015625 0.019531 0 0.03125-0.0039062 0.03125-0.015625 0.007813-0.0078125 0.015625-0.023438 0.015625-0.046875 0-0.03125-0.007812-0.050781-0.015625-0.0625 0-0.007813-0.011719-0.015625-0.03125-0.015625zm0-0.046875c0.039063 0 0.070313 0.011719 0.09375 0.03125 0.019531 0.023437 0.03125 0.054687 0.03125 0.09375 0 0.03125-0.011719 0.058594-0.03125 0.078125-0.023437 0.023438-0.054687 0.03125-0.09375 0.03125-0.042969 0-0.074219-0.0078125-0.09375-0.03125-0.023438-0.019531-0.03125-0.046875-0.03125-0.078125 0-0.039063 0.0078125-0.070313 0.03125-0.09375 0.019531-0.019531 0.050781-0.03125 0.09375-0.03125z"/>
  </symbol>
  <symbol id="q" overflow="visible">
   <path d="m0.25-0.1875 0.03125-0.03125c0.007812-0.007812 0.019531-0.015625 0.03125-0.015625 0.03125 0 0.050781 0.011719 0.0625 0.03125 0.019531 0.011719 0.03125 0.03125 0.03125 0.0625v0.14062h-0.078125v-0.10938-0.015625c0-0.019531-0.007813-0.03125-0.015625-0.03125 0-0.007812-0.007812-0.015625-0.015625-0.015625-0.011719 0-0.023437 0.007813-0.03125 0.015625-0.011719 0.011719-0.015625 0.027344-0.015625 0.046875v0.10938h-0.0625v-0.10938c0-0.03125-0.007812-0.046875-0.015625-0.046875 0-0.007812-0.007813-0.015625-0.015625-0.015625-0.023438 0-0.039062 0.007813-0.046875 0.015625v0.046875 0.10938h-0.078125v-0.21875h0.078125v0.03125c0.007813-0.019531 0.019531-0.03125 0.03125-0.03125 0.007813-0.007812 0.019531-0.015625 0.03125-0.015625 0.019531 0 0.035156 0.007813 0.046875 0.015625 0.007812 0.011719 0.019531 0.023438 0.03125 0.03125z"/>
  </symbol>
  <symbol id="p" overflow="visible">
   <path d="m0.03125-0.29688h0.09375l0.10938 0.20312v-0.20312h0.078125v0.29688h-0.09375l-0.10938-0.20312v0.20312h-0.078125z"/>
  </symbol>
  <symbol id="o" overflow="visible">
   <path d="m0.03125-0.09375v-0.125h0.078125v0.015625 0.046875 0.03125 0.046875 0.015625 0.015625h0.03125c0.007813 0 0.019531-0.0039062 0.03125-0.015625 0.007813-0.0078125 0.015625-0.023438 0.015625-0.046875v-0.10938h0.078125v0.21875h-0.078125v-0.03125c-0.011719 0.011719-0.023438 0.023438-0.03125 0.03125h-0.046875c-0.023438 0-0.042969-0.0039062-0.0625-0.015625-0.011719-0.019531-0.015625-0.046875-0.015625-0.078125z"/>
  </symbol>
  <symbol id="n" overflow="visible">
   <path d="m0.03125-0.29688h0.14062c0.03125 0 0.054687 0.011719 0.078125 0.03125 0.019531 0.011719 0.03125 0.03125 0.03125 0.0625s-0.011719 0.058594-0.03125 0.078125c-0.023438 0.011719-0.046875 0.015625-0.078125 0.015625h-0.0625v0.10938h-0.078125zm0.078125 0.046875v0.09375h0.046875c0.019531 0 0.03125-0.003906 0.03125-0.015625 0.007812-0.007813 0.015625-0.019531 0.015625-0.03125 0-0.007813-0.007813-0.019531-0.015625-0.03125 0-0.007813-0.011719-0.015625-0.03125-0.015625z"/>
  </symbol>
  <symbol id="m" overflow="visible">
   <path d="m0.21875-0.21875v0.0625c-0.011719-0.007812-0.023438-0.015625-0.03125-0.015625-0.011719-0.007813-0.023438-0.015625-0.03125-0.015625-0.023438 0-0.039062 0.011719-0.046875 0.03125-0.011719 0.011719-0.015625 0.027344-0.015625 0.046875 0 0.023438 0.0039062 0.039062 0.015625 0.046875 0.007813 0.011719 0.023437 0.015625 0.046875 0.015625h0.03125c0.007812-0.0078125 0.019531-0.015625 0.03125-0.015625v0.0625h-0.03125-0.03125c-0.054688 0-0.089844-0.0078125-0.10938-0.03125-0.023438-0.019531-0.03125-0.046875-0.03125-0.078125 0-0.039063 0.0078125-0.070313 0.03125-0.09375 0.019531-0.019531 0.054687-0.03125 0.10938-0.03125 0.007812 0 0.019531 0.007813 0.03125 0.015625h0.03125z"/>
  </symbol>
 </defs>
 <g>
  <path d="m241.68 11.488c-0.57813-5.9531 2.0664-10.91 9.2578-10.992l29.012-0.49609c4.3789 0 8.0195 2.8086 9.0938 6.7773l9.5039 42.402c3.3047 14.715 27.938 11.738 27.938 0.99219v-41.824c0-4.875 4.4648-8.3477 9.2578-8.3477h28.516c4.793 0 9.2578 3.4727 9.2578 8.3477v41.824c0 10.746 24.633 13.723 27.938-0.99219l9.5039-42.402c1.0742-3.9688 4.7109-6.7773 9.0938-6.7773l29.094 0.49609c7.1094 0.082031 9.7539 5.043 9.1758 10.992l-10.91 102.58c-0.57812 5.125-3.4727 9.6719-7.8516 12.562 6.7773 8.9258 1.4062 21.82-9.5039 23.473-18.93 51.496-2.3125 142.91 27.773 188.12h13.723c23.391 0 25.953 34.219 3.2227 38.105 0 21.16-4.1328 37.855-23.969 49.594 39.758 9.5039 69.434 44.551 71.5 86.129l0.082031 47.941h-344.76l0.082031-47.941c2.0664-41.246 31.41-76.539 71.5-86.129-19.836-11.738-23.969-28.434-23.969-49.594-23.227-3.9688-19.754-38.105 3.2227-38.105h13.805c25.625-38.105 38.023-102.66 35.129-148.95-0.99219-15.375-3.5547-28.684-7.4375-39.18-10.91-1.6523-16.285-14.547-9.5039-23.473-4.3789-2.8945-7.2734-7.4375-7.8516-12.562l-10.91-102.58z"/>
  <use x="177.621094" y="561.238281" xlink:href="#u"/>
  <use x="177.921875" y="561.238281" xlink:href="#d"/>
  <use x="178.125" y="561.238281" xlink:href="#c"/>
  <use x="178.40625" y="561.238281" xlink:href="#a"/>
  <use x="178.683594" y="561.238281" xlink:href="#b"/>
  <use x="178.882812" y="561.238281" xlink:href="#c"/>
  <use x="179.164062" y="561.238281" xlink:href="#l"/>
  <use x="179.601562" y="561.238281" xlink:href="#k"/>
  <use x="179.898438" y="561.238281" xlink:href="#j"/>
  <use x="180.3125" y="561.238281" xlink:href="#b"/>
  <use x="180.507812" y="561.238281" xlink:href="#a"/>
  <use x="180.789062" y="561.238281" xlink:href="#g"/>
  <use x="180.929688" y="561.238281" xlink:href="#i"/>
  <use x="181.222656" y="561.238281" xlink:href="#t"/>
  <use x="181.367188" y="561.238281" xlink:href="#h"/>
  <use x="181.804688" y="561.238281" xlink:href="#f"/>
  <use x="182.101562" y="561.238281" xlink:href="#a"/>
  <use x="182.378906" y="561.238281" xlink:href="#s"/>
  <use x="182.519531" y="561.238281" xlink:href="#a"/>
  <use x="182.800781" y="561.238281" xlink:href="#f"/>
  <use x="183.09375" y="561.238281" xlink:href="#f"/>
  <use x="183.390625" y="561.238281" xlink:href="#a"/>
  <use x="177.621094" y="561.652344" xlink:href="#r"/>
  <use x="177.800781" y="561.652344" xlink:href="#d"/>
  <use x="178.003906" y="561.652344" xlink:href="#e"/>
  <use x="178.285156" y="561.652344" xlink:href="#q"/>
  <use x="178.859375" y="561.652344" xlink:href="#b"/>
  <use x="179.058594" y="561.652344" xlink:href="#i"/>
  <use x="179.351562" y="561.652344" xlink:href="#c"/>
  <use x="179.777344" y="561.652344" xlink:href="#p"/>
  <use x="180.125" y="561.652344" xlink:href="#e"/>
  <use x="180.40625" y="561.652344" xlink:href="#o"/>
  <use x="180.703125" y="561.652344" xlink:href="#h"/>
  <use x="181.140625" y="561.652344" xlink:href="#n"/>
  <use x="181.441406" y="561.652344" xlink:href="#d"/>
  <use x="181.644531" y="561.652344" xlink:href="#e"/>
  <use x="181.929687" y="561.652344" xlink:href="#g"/>
  <use x="182.070312" y="561.652344" xlink:href="#c"/>
  <use x="182.351562" y="561.652344" xlink:href="#m"/>
  <use x="182.597656" y="561.652344" xlink:href="#b"/>
 </g>
</svg>
